<?xml version="1.0" encoding="UTF-8" standalone="no"?>
<svg
   xmlns:dc="http://purl.org/dc/elements/1.1/"
   xmlns:cc="http://creativecommons.org/ns#"
   xmlns:rdf="http://www.w3.org/1999/02/22-rdf-syntax-ns#"
   xmlns:svg="http://www.w3.org/2000/svg"
   xmlns="http://www.w3.org/2000/svg"
   xmlns:xlink="http://www.w3.org/1999/xlink"
   xmlns:sodipodi="http://sodipodi.sourceforge.net/DTD/sodipodi-0.dtd"
   xmlns:inkscape="http://www.inkscape.org/namespaces/inkscape"
   version="1.1"
   width="480"
   height="800"
   overflow="visible"
   viewBox="0 0 480 800"
   enable-background="new 0.0 0.0 800.0 480.0"
   id="svg2"
   inkscape:version="0.91 r13725"
   sodipodi:docname="spaceArt2.svg"
   style="overflow:visible">
  <metadata
     id="metadata284">
    <rdf:RDF>
      <cc:Work
         rdf:about="">
        <dc:format>image/svg+xml</dc:format>
        <dc:type
           rdf:resource="http://purl.org/dc/dcmitype/StillImage" />
        <dc:title></dc:title>
      </cc:Work>
    </rdf:RDF>
  </metadata>
  <sodipodi:namedview
     pagecolor="#ffffff"
     bordercolor="#666666"
     borderopacity="1"
     objecttolerance="10"
     gridtolerance="10"
     guidetolerance="10"
     inkscape:pageopacity="0"
     inkscape:pageshadow="2"
     inkscape:window-width="1920"
     inkscape:window-height="1056"
     id="namedview282"
     showgrid="false"
     inkscape:zoom="1.07125"
     inkscape:cx="400"
     inkscape:cy="372.49633"
     inkscape:window-x="0"
     inkscape:window-y="24"
     inkscape:window-maximized="1"
     inkscape:current-layer="svg2"
     inkscape:snap-grids="true"
     inkscape:snap-to-guides="false" />
  <defs
     id="defs4">
    <linearGradient
       id="Grad1"
       gradientUnits="userSpaceOnUse"
       gradientTransform="matrix(0,0.0178833,-0.01826477,0,468.95,300)"
       x1="-819.20001"
       y1="0"
       x2="819.20001"
       y2="0">
      <stop
         offset="0.0"
         stop-color="#FFFFFF"
         id="stop7" />
      <stop
         offset="1.0"
         stop-color="#71CA35"
         id="stop9" />
    </linearGradient>
    <linearGradient
       id="Grad2"
       gradientUnits="userSpaceOnUse"
       gradientTransform="matrix(0,-0.0178833,-0.01826477,0,539,300)"
       x1="-819.20001"
       y1="0"
       x2="819.20001"
       y2="0">
      <stop
         offset="0.0"
         stop-color="#FFFFFF"
         id="stop12" />
      <stop
         offset="1.0"
         stop-color="#CE3131"
         id="stop14" />
    </linearGradient>
    <linearGradient
       id="Grad3"
       gradientUnits="userSpaceOnUse"
       gradientTransform="matrix(0,-0.06958008,-0.06338501,0,213.65,189.4)"
       x1="-819.20001"
       y1="0"
       x2="819.20001"
       y2="0">
      <stop
         offset="0.0"
         stop-color="#FFFFFF"
         id="stop17" />
      <stop
         offset="1.0"
         stop-color="#FFFFFF"
         stop-opacity="0.0"
         id="stop19" />
    </linearGradient>
    <linearGradient
       id="Grad4"
       gradientUnits="userSpaceOnUse"
       gradientTransform="matrix(0,-0.10986328,0.10269165,0,454.9,106.45)"
       x1="-819.20001"
       y1="0"
       x2="819.20001"
       y2="0">
      <stop
         offset="0.0"
         stop-color="#5E3F6B"
         id="stop22" />
      <stop
         offset="1.0"
         stop-color="#583D65"
         id="stop24" />
    </linearGradient>
    <linearGradient
       inkscape:collect="always"
       xlink:href="#Grad1"
       id="linearGradient4287"
       gradientUnits="userSpaceOnUse"
       gradientTransform="matrix(0,0.0178833,-0.01826477,0,468.95,300)"
       x1="-819.20001"
       y1="0"
       x2="819.20001"
       y2="0" />
    <linearGradient
       inkscape:collect="always"
       xlink:href="#Grad2"
       id="linearGradient4289"
       gradientUnits="userSpaceOnUse"
       gradientTransform="matrix(0,-0.0178833,-0.01826477,0,539,300)"
       x1="-819.20001"
       y1="0"
       x2="819.20001"
       y2="0" />
    <linearGradient
       inkscape:collect="always"
       xlink:href="#Grad3"
       id="linearGradient4291"
       gradientUnits="userSpaceOnUse"
       gradientTransform="matrix(0,-0.06958008,-0.06338501,0,213.65,189.4)"
       x1="-819.20001"
       y1="0"
       x2="819.20001"
       y2="0" />
    <linearGradient
       inkscape:collect="always"
       xlink:href="#Grad4"
       id="linearGradient4293"
       gradientUnits="userSpaceOnUse"
       gradientTransform="matrix(0,-0.10986328,0.10269165,0,454.9,106.45)"
       x1="-819.20001"
       y1="0"
       x2="819.20001"
       y2="0" />
  </defs>
  <g
     id="g4029"
     transform="matrix(0,1,-1,0,480,0)">
    <rect
       width="800"
       height="480"
       x="0"
       y="0"
       id="rect4031"
       style="fill:#5e3f6b" />
    <g
       id="g4033">
      <g
         transform="matrix(-1.0033417,0,0,1.0067139,320.65,407.95)"
         id="g4035">
        <g
           id="g4037">
          <path
             d="m -11.9,-11.75 2.95,-23.7 0.55,-1.25 c 0.333333,-0.333333 0.7166666,-0.5 1.15,-0.5 l 14.55,0 c 0.433333,0 0.799999,0.166667 1.1,0.5 0.333333,0.33333 0.533332,0.75 0.6,1.25 l 3,23.7 -0.1,0.1 -1.55,1.15 -3.05,-24.7 -11.3,0 -3.1,24.7 -1.55,-1.25 -0.15,0.1 -0.1,-0.1 -0.15,0.1 -0.1,-0.1 -0.15,0.1 -0.1,-0.1 -0.15,0.1 -0.1,-0.1 -0.15,0.1 -0.1,-0.1 -0.25,0.2 -0.25,-0.2 -0.15,0.1 -0.1,-0.1 -0.15,0.1 -0.1,-0.1 -0.15,0.1 -0.1,-0.1 -0.15,0.1 -0.1,-0.1 -0.15,0.1 -0.1,-0.1 -0.15,0.1 -0.1,-0.1 z M 8.4,36.3 7.8,37 l -0.85,0.25 -1.55,0 0,-2 1.55,0 5.4,-10.05 1.1,1.8 -5.05,9.3 z m 5.05,-9.3 0,0.05 z m -15.6,10.25 -4.75,0 -0.85,-0.25 -0.65,-0.7 -5.05,-9.25 0.25,0 0.25,0 0.25,0 0.25,0 0.25,0 0.25,0 0.05,-0.1 0.45,0.1 0.25,0 0.25,0 0.25,0 0.25,0 0.25,0 1.05,-1.85 5.5,10.05 1.5,0 0,2 z M -13.45,27.05 -13.4,27 Z m 0.25,0 0.05,-0.05 z m 2.75,0 0.05,-0.05 z m -0.25,0 0.05,-0.05 z m -0.25,0 0.05,-0.05 z m -0.25,0 0.05,-0.05 z m -0.25,0 0.05,-0.05 z m -0.75,0 0.05,-0.05 z m -0.25,0 0.05,-0.05 z m -0.25,0 0.05,-0.05 z m -0.25,0 0.05,-0.05 z"
             id="path4039"
             inkscape:connector-curvature="0"
             style="fill:#cccccc;stroke-linecap:round;stroke-linejoin:round" />
          <path
             d="m 12,-11.75 19.45,12.65 2.4,-1.3 0.1,0.1 0.15,-0.1 0.1,0.1 0.15,-0.1 0.1,0.1 0.15,-0.1 0.1,0.1 0.15,-0.1 0.1,0.1 0.15,-0.1 0.1,0.1 0.15,-0.1 0.15,0.2 0.35,-0.2 0.1,0.1 0.15,-0.1 0.1,0.1 0.15,-0.1 0.1,0.1 0.15,-0.1 0.1,0.1 0.15,-0.1 0.1,0.1 0.15,-0.1 1.3,1.5 -5.5,3 -18.9,-12.25 -3.65,-2.35 1.55,-1.15 0.1,-0.1 z m 22.95,33.7 -1.3,0.65 -0.4,0.2 -2.2,0.45 0,-2.05 1.85,-0.4 5.5,-3 -0.85,2.7 -2.6,1.45 z m -19.25,2.55 0,2.05 -2.25,0.5 -1.1,-1.85 3.35,-0.7 z m -2.25,2.55 0,-0.05 z m -29.1,-0.5 0,-0.05 0.25,0.05 0.25,0 0.25,0 0.25,0 0.25,0 0.25,0 0,-0.1 0.5,0.1 0.25,0 0.25,0 0.25,0 0.25,0 0.25,0 0,-2.05 3.25,0.7 -1.05,1.85 -0.2,-0.05 -0.25,0 -0.25,0 -0.25,0 -0.25,0 -0.5,-0.05 -0.05,0.1 -0.2,-0.05 -0.25,0 -0.25,0 -0.25,0 -0.25,0 -0.25,0 -2.25,-0.45 z m 2.25,0.45 -0.05,0.05 z m -2,-0.45 0,-0.05 z m 2.25,0.45 -0.05,0.05 z m -2,-0.45 0,-0.05 z m 2.25,0.45 -0.05,0.05 z m -2,-0.45 0,-0.05 z m 2.25,0.45 -0.05,0.05 z m -2,-0.45 0,-0.05 z m 2.25,0.45 -0.05,0.05 z m -2,-0.45 0,-0.05 z m 2.25,0.45 -0.05,0.05 z m -1.5,-0.45 0,-0.05 z m 2.25,0.45 -0.05,0.05 z m -2,-0.45 0,-0.05 z m 2.25,0.45 -0.05,0.05 z m -2,-0.45 0,-0.05 z m 2.25,0.45 -0.05,0.05 z m -2,-0.45 0,-0.05 z m 2.25,0.45 -0.05,0.05 z m -2,-0.45 0,-0.05 z m 2.25,0.45 -0.05,0.05 z m -22.75,-4.2 -0.45,-0.2 -1.2,-0.65 0.55,-1.45 -0.85,-2.7 5.5,3 1.75,0.4 0,2.05 -0.25,-0.05 -0.25,0 -0.25,0 -0.25,0 -0.25,0 -0.5,-0.05 0,0.1 -0.25,-0.05 -0.25,0 -0.25,0 -0.25,0 -0.25,0 -0.25,0 -2.05,-0.4 z m 2.05,0.4 0,0.05 z m 0.25,0 0,0.05 z m 0.25,0 0,0.05 z m 2.5,0 0,0.05 z m -0.25,0 0,0.05 z m -0.25,0 0,0.05 z m -0.25,0 0,0.05 z m -0.25,0 0,0.05 z m -0.75,0 0,0.05 z m -0.25,0 0,0.05 z m -0.25,0 0,0.05 z m -3.5,-23.6 2.35,1.3 19.6,-12.65 0.1,0.1 0.15,-0.1 0.1,0.1 0.15,-0.1 0.1,0.1 0.15,-0.1 0.1,0.1 0.15,-0.1 0.1,0.1 0.15,-0.1 0.1,0.1 0.15,-0.1 0.25,0.2 0.25,-0.2 0.1,0.1 0.15,-0.1 0.1,0.1 0.15,-0.1 0.1,0.1 0.15,-0.1 0.1,0.1 0.15,-0.1 0.1,0.1 0.15,-0.1 1.55,1.25 -3.6,2.35 -18.9,12.25 -5.5,-3 1.25,-1.5 z"
             id="path4041"
             inkscape:connector-curvature="0"
             style="fill:#9ebbc7;stroke-linecap:round;stroke-linejoin:round" />
          <path
             d="m 33.85,-0.4 2.35,-4.8 0.65,-0.75 c 0.266665,-0.2 0.566664,-0.3 0.9,-0.3 l 5.25,0 0.9,0.3 0.65,0.85 0.2,1.1 -2.65,26.95 -0.5,1.15 c -0.266668,0.3 -0.583334,0.5 -0.95,0.6 l -0.4,0.05 -0.25,0 -0.25,0 -0.25,0 -0.25,0 -0.4,-0.05 -0.35,0.05 -0.25,0 -0.25,0 -0.25,0 -0.25,0 -0.25,0 -1,-0.25 -0.75,-0.95 -0.55,-1.6 2.6,-1.45 0.85,-2.7 1.95,4.9 2.65,-26.95 -2,0 -2.6,5.35 -1.3,-1.5 -0.15,0.1 -0.1,-0.1 -0.15,0.1 -0.1,-0.1 -0.15,0.1 -0.1,-0.1 -0.15,0.1 -0.1,-0.1 -0.15,0.1 -0.1,-0.1 -0.35,0.2 -0.15,-0.2 -0.15,0.1 -0.1,-0.1 -0.15,0.1 -0.1,-0.1 -0.15,0.1 -0.1,-0.1 -0.15,0.1 -0.1,-0.1 -0.15,0.1 -0.1,-0.1 -0.15,0.1 -0.1,-0.1 z M 5.4,37.25 l -7.55,0 0,-2 7.55,0 0,2 z m -40.2,-15.3 -0.65,1.6 -0.8,0.95 -0.9,0.25 -0.25,0 -0.25,0 -0.25,0 -0.3,0 -0.35,-0.05 -0.35,0.05 -0.25,0 -0.25,0 -0.25,0 -0.25,0 -0.25,0 -0.45,-0.05 c -0.4,-0.1 -0.733332,-0.3 -1,-0.6 L -42,22.95 -44.65,-4 l 0.1,-1.1 0.65,-0.85 0.95,-0.3 5.2,0 0.85,0.3 0.65,0.7 2.4,4.85 -1.25,1.5 -2.65,-5.35 -1.95,0 2.65,26.95 1.95,-4.9 0.85,2.7 -0.55,1.45 z"
             id="path4043"
             inkscape:connector-curvature="0"
             style="fill:#802b2b;stroke-linecap:round;stroke-linejoin:round" />
          <path
             d="m 31.05,23.25 -15.35,3.3 0,-2.05 3.8,-0.85 3.9,-0.8 3.8,-0.8 3.85,-0.85 0,2.05 z m -62.15,0 0,-0.05 0.25,0.05 0.25,0 0.25,0 0.25,0 0.25,0 0.25,0 0,-0.1 0.5,0.1 0.25,0 0.25,0 0.25,0 0.25,0 0.25,0 0,-2.05 3.9,0.85 3.85,0.8 3.8,0.8 3.9,0.85 0,2.05 -0.25,-0.05 -0.25,0 -0.25,0 -0.25,0 -0.25,0 -0.5,-0.05 0,0.1 -0.25,-0.05 -0.25,0 -0.25,0 -0.25,0 -0.25,0 -0.25,0 -15.45,-3.25 z m 15.45,3.25 0,0.05 z m -15.2,-3.25 0,-0.05 z m 15.45,3.25 0,0.05 z m -15.2,-3.25 0,-0.05 z m 15.45,3.25 0,0.05 z m -15.2,-3.25 0,-0.05 z m 15.45,3.25 0,0.05 z m -15.2,-3.25 0,-0.05 z m 15.45,3.25 0,0.05 z m -15.2,-3.25 0,-0.05 z m 15.45,3.25 0,0.05 z m -14.7,-3.25 0,-0.05 z m 15.45,3.25 0,0.05 z m -15.2,-3.25 0,-0.05 z m 15.45,3.25 0,0.05 z m -15.2,-3.25 0,-0.05 z m 15.45,3.25 0,0.05 z m -15.2,-3.25 0,-0.05 z m 15.45,3.25 0,0.05 z m -15.2,-3.25 0,-0.05 z m 15.45,3.25 0,0.05 z"
             id="path4045"
             inkscape:connector-curvature="0"
             style="fill:#caa202;stroke-linecap:round;stroke-linejoin:round" />
          <path
             d="m -7.1,-10.5 3.1,-24.7 11.3,0 3.05,24.7 2,15.95 0,19.75 -5.4,10.05 -1.55,0 4.5,-8.45 0,-21.35 -3.4,-37.15 -9.75,0 -3.4,37.15 0,21.35 4.5,8.45 -1.5,0 -5.5,-10.05 0,-19.75 2.05,-15.95 z"
             id="path4047"
             inkscape:connector-curvature="0"
             style="fill:#f2f2f2;stroke-linecap:round;stroke-linejoin:round" />
          <path
             d="m -2.15,35.25 -4.5,-8.45 0,-21.35 3.4,-37.15 9.75,0 3.4,37.15 0,21.35 -4.5,8.45 -7.55,0 z m 10.2,-37.8 -0.1,-1.4 -12.6,0 -0.15,1.4 -0.85,8 14.55,0 -0.85,-8 z m -45.8,-1.7 2.65,5.35 0,16.7 -1.95,4.9 -2.65,-26.95 1.95,0 z m 78.1,26.95 -1.95,-4.9 0,-16.7 2.6,-5.35 2,0 -2.65,26.95 z"
             id="path4049"
             inkscape:connector-curvature="0"
             style="fill:#ac3939;stroke-linecap:round;stroke-linejoin:round" />
          <path
             d="m 12.35,25.2 0,-19.75 -2,-15.95 3.65,2.35 1.7,13.6 0,12.75 0,0.95 0,5.35 -3.35,0.7 z m -24.75,-6.05 0,-0.95 0,-12.75 1.7,-13.6 3.6,-2.35 -2.05,15.95 0,19.75 -3.25,-0.7 0,-5.35 z"
             id="path4051"
             inkscape:connector-curvature="0"
             style="fill:#bdd6db;stroke-linecap:round;stroke-linejoin:round" />
          <path
             d="m 14,-8.15 18.9,12.25 0,16.7 -1.85,0.4 0,-5.3 0,-0.95 L 15.7,18.2 15.7,5.45 14,-8.15 Z m -41.85,24.05 0,5.3 -1.75,-0.4 0,-16.7 18.9,-12.25 -1.7,13.6 0,12.75 -15.45,-3.25 0,0.95 z"
             id="path4053"
             inkscape:connector-curvature="0"
             style="fill:#d3e1e7;stroke-linecap:round;stroke-linejoin:round" />
          <path
             d="m 32.9,4.1 5.5,-3 0,16.7 -5.5,3 0,-16.7 z m -56.85,12.6 -3.9,-0.8 0,-0.95 15.45,3.25 0,0.95 -3.9,-0.8 -3.8,-0.8 -3.85,-0.85 z m -5.65,-12.6 0,16.7 -5.5,-3 0,-16.7 5.5,3 z m 53,13.45 -3.9,0.8 -3.8,0.8 0,-0.95 15.35,-3.25 0,0.95 -3.85,0.8 -3.8,0.85 z"
             id="path4055"
             inkscape:connector-curvature="0"
             style="fill:#b9ced7;stroke-linecap:round;stroke-linejoin:round" />
          <path
             d="m 7.95,-3.95 0.1,1.4 -12.85,0 0.15,-1.4 12.6,0 z"
             id="path4057"
             inkscape:connector-curvature="0"
             style="fill:#c44d4d;stroke-linecap:round;stroke-linejoin:round" />
          <path
             d="m -4.8,-2.55 12.85,0 0.85,8 -14.55,0 0.85,-8 z"
             id="path4059"
             inkscape:connector-curvature="0"
             style="fill:#4a3c55;stroke-linecap:round;stroke-linejoin:round" />
          <path
             d="m -27.85,15.9 3.9,0.8 0,5.35 -3.9,-0.85 0,-5.3 z m 7.75,1.65 3.8,0.8 0,5.3 -3.8,-0.8 0,-5.3 z m 39.6,6.1 0,-5.3 3.9,-0.8 0,5.3 -3.9,0.8 z m 11.55,-7.75 0,5.3 -3.85,0.85 0,-5.35 3.85,-0.8 z"
             id="path4061"
             inkscape:connector-curvature="0"
             style="fill:#ecbd02;stroke-linecap:round;stroke-linejoin:round" />
          <path
             d="m -23.95,22.05 0,-5.35 3.85,0.85 0,5.3 -3.85,-0.8 z m 7.65,-3.7 3.9,0.8 0,5.35 -3.9,-0.85 0,-5.3 z m 35.8,0 0,5.3 -3.8,0.85 0,-5.35 3.8,-0.8 z m 3.9,4.5 0,-5.3 3.8,-0.85 0,5.35 -3.8,0.8 z"
             id="path4063"
             inkscape:connector-curvature="0"
             style="fill:#ffcc00;stroke-linecap:round;stroke-linejoin:round" />
        </g>
      </g>
      <g
         id="g4065">
        <path
           d="m 283.15,407.55 -2.35,-4.85 -0.65,-0.75 c -0.26667,-0.2 -0.55,-0.3 -0.85,-0.3 l -2.05,0 c -0.30002,0 -0.6,0.1 -0.9,0.3 -0.3,0.2 -0.5167,0.48332 -0.65,0.85 l -0.2,1.1 2.7,27.15 c 0.0333,0.43334 0.18333,0.81667 0.45,1.15 0.26666,0.3 0.6,0.49998 1,0.6 l 1.1,-0.2 0.75,-0.95 1.25,-3.05 -0.85,-2.75 -1.95,4.95 -2.7,-27.15 2.05,0 2.6,5.4 1.25,-1.5 z m 31.85,37.9 7.55,0 0,-2 -7.55,0 0,2 z m 39.75,-16.85 1.25,3.05 0.75,0.95 1.1,0.2 c 0.4,-0.10002 0.73334,-0.3 1,-0.6 l 0.45,-1.15 2.65,-27.15 -0.1,-1.1 -0.65,-0.85 c -0.3,-0.2 -0.6167,-0.3 -0.95,-0.3 l -1.95,0 c -0.33336,0 -0.63334,0.1 -0.9,0.3 l -0.65,0.7 -2.4,4.9 1.3,1.5 2.65,-5.4 1.95,0 -2.65,27.15 -1.95,-4.95 -0.9,2.75 z"
           id="path4067"
           inkscape:connector-curvature="0"
           style="fill:#802b2b;stroke-linecap:round;stroke-linejoin:round" />
        <path
           d="m 282.75,428.6 3.9,2.1 0.4,0.2 2.2,0.45 0,-2.05 -1.85,-0.4 -5.5,-3.05 0.85,2.75 z m 21.9,6.1 2.25,0.5 1.1,-1.9 -3.35,-0.7 0,2.1 z m 26,0.5 2.2,-0.5 0,-2.1 -3.25,0.7 1.05,1.9 z m 17.7,-3.85 2.1,-0.45 0.4,-0.2 3.9,-2.1 0.9,-2.75 -5.55,3.05 -1.75,0.4 0,2.05 z m 6,-23.8 -4.15,2.25 -21.1,-13.7 -1.55,1.3 3.6,2.35 18.95,12.35 5.55,-3.05 -1.3,-1.5 z m -45.95,-11.45 -21.1,13.7 -4.15,-2.25 -1.25,1.5 5.5,3.05 18.95,-12.35 3.65,-2.35 -1.6,-1.3 z"
           id="path4069"
           inkscape:connector-curvature="0"
           style="fill:#9ebbc7;stroke-linecap:round;stroke-linejoin:round" />
        <path
           d="m 289.25,431.35 15.4,3.35 0,-2.1 -3.85,-0.85 -3.85,-0.8 -3.85,-0.8 -3.85,-0.85 0,2.05 z m 43.6,3.35 15.5,-3.35 0,-2.05 -3.9,0.85 -3.85,0.8 -3.85,0.8 -3.9,0.85 0,2.1 z"
           id="path4071"
           inkscape:connector-curvature="0"
           style="fill:#caa202;stroke-linecap:round;stroke-linejoin:round" />
        <path
           d="m 306.9,435.2 5.05,9.3 0.65,0.7 0.85,0.25 1.55,0 0,-2 -1.55,0 -5.45,-10.15 -1.1,1.9 z m 15.65,10.25 1.5,0 0.85,-0.25 0.65,-0.7 5.1,-9.3 -1.05,-1.9 -5.55,10.15 -1.5,0 0,2 z m 6.55,-49.35 -2.95,-23.85 c -0.0667,-0.5 -0.2667,-0.91666 -0.6,-1.25 -0.3,-0.33334 -0.68333,-0.5 -1.15,-0.5 l -11.3,0 c -0.4333,0 -0.81664,0.16666 -1.15,0.5 -0.3,0.33334 -0.50002,0.75 -0.6,1.25 l -2.95,23.85 1.6,1.3 3.1,-24.9 11.3,0 3.15,24.9 1.55,-1.3 z"
           id="path4073"
           inkscape:connector-curvature="0"
           style="fill:#cccccc;stroke-linecap:round;stroke-linejoin:round" />
        <path
           d="m 281.9,409.05 -2.6,-5.4 -2.05,0 2.7,27.15 1.95,-4.95 0,-16.8 z m 40.65,34.4 4.55,-8.5 0,-21.5 -3.4,-37.4 -9.8,0 -3.4,37.4 0,21.5 4.5,8.5 7.55,0 z m -10.25,-38.05 0.15,-1.45 12.65,0 0.1,1.45 0.9,8.05 -14.6,0 0.8,-8.05 z m 46,-1.75 -2.65,5.4 0,16.8 1.95,4.95 2.65,-27.15 -1.95,0 z"
           id="path4075"
           inkscape:connector-curvature="0"
           style="fill:#ac3939;stroke-linecap:round;stroke-linejoin:round" />
        <path
           d="m 313.1,372.5 -3.1,24.9 -2,16.05 0,19.85 5.45,10.15 1.55,0 -4.5,-8.5 0,-21.5 3.4,-37.4 9.8,0 3.4,37.4 0,21.5 -4.55,8.5 1.5,0 5.55,-10.15 0,-19.85 -2.05,-16.05 -3.15,-24.9 -11.3,0 z"
           id="path4077"
           inkscape:connector-curvature="0"
           style="fill:#f2f2f2;stroke-linecap:round;stroke-linejoin:round" />
        <path
           d="m 327.55,397.4 2.05,16.05 0,19.85 3.25,-0.7 0,-5.35 0,-1 0,-12.8 -1.7,-13.7 -3.6,-2.35 z m -19.55,35.9 0,-19.85 2,-16.05 -3.65,2.35 -1.7,13.7 0,12.8 0,1 0,5.35 3.35,0.7 z"
           id="path4079"
           inkscape:connector-curvature="0"
           style="fill:#bdd6db;stroke-linecap:round;stroke-linejoin:round" />
        <path
           d="m 331.15,399.75 1.7,13.7 0,12.8 15.5,-3.25 0,0.95 0,5.35 1.75,-0.4 0,-16.8 -18.95,-12.35 z m -26.5,13.7 1.7,-13.7 -18.95,12.35 0,16.8 1.85,0.4 0,-5.35 0,-0.95 15.4,3.25 0,-12.8 z"
           id="path4081"
           inkscape:connector-curvature="0"
           style="fill:#d3e1e7;stroke-linecap:round;stroke-linejoin:round" />
        <path
           d="m 332.85,426.25 0,1 3.9,-0.85 3.85,-0.8 3.85,-0.85 3.9,-0.8 0,-0.95 -15.5,3.25 z m 17.25,-14.15 0,16.8 5.55,-3.05 0,-16.8 -5.55,3.05 z m -45.45,14.15 -15.4,-3.25 0,0.95 3.85,0.8 3.85,0.85 3.85,0.8 3.85,0.85 0,-1 z m -17.25,2.65 0,-16.8 -5.5,-3.05 0,16.8 5.5,3.05 z"
           id="path4083"
           inkscape:connector-curvature="0"
           style="fill:#b9ced7;stroke-linecap:round;stroke-linejoin:round" />
        <path
           d="m 332.85,427.25 0,5.35 3.9,-0.85 0,-5.35 -3.9,0.85 z m -39.75,-2.5 0,5.4 3.85,0.8 0,-5.35 -3.85,-0.85 z m 7.7,1.65 0,5.35 3.85,0.85 0,-5.35 -3.85,-0.85 z m 39.8,-0.8 0,5.35 3.85,-0.8 0,-5.4 -3.85,0.85 z"
           id="path4085"
           inkscape:connector-curvature="0"
           style="fill:#ffcc00;stroke-linecap:round;stroke-linejoin:round" />
        <path
           d="m 312.45,403.95 -0.15,1.45 12.9,0 -0.1,-1.45 -12.65,0 z"
           id="path4087"
           inkscape:connector-curvature="0"
           style="fill:#c44d4d;stroke-linecap:round;stroke-linejoin:round" />
        <path
           d="m 325.2,405.4 -12.9,0 -0.8,8.05 14.6,0 -0.9,-8.05 z"
           id="path4089"
           inkscape:connector-curvature="0"
           style="fill:#4a3c55;stroke-linecap:round;stroke-linejoin:round" />
        <path
           d="m 348.35,429.3 0,-5.35 -3.9,0.8 0,5.4 3.9,-0.85 z m -59.1,-5.35 0,5.35 3.85,0.85 0,-5.4 -3.85,-0.8 z m 11.55,7.8 0,-5.35 -3.85,-0.8 0,5.35 3.85,0.8 z m 35.95,-5.35 0,5.35 3.85,-0.8 0,-5.35 -3.85,0.8 z"
           id="path4091"
           inkscape:connector-curvature="0"
           style="fill:#ecbd02;stroke-linecap:round;stroke-linejoin:round" />
        <path
           d="m 634.35,370.45 11.1,0 c 0.5,0 0.93336,0.16667 1.3,0.5 0.36664,0.33336 0.6,0.75 0.7,1.25 l 2.7,18.95 -1.75,1.7 -0.65,-4.5 -2.3,-15.85 -6.5,0 -5.4,0 0.8,-2.05 z m 28.6,32.55 c 4,2.23334 8,4.5 12,6.8 l 4.75,-2.25 2.75,-4.85 c 0.1667,-0.33333 0.4167,-0.58333 0.75,-0.75 0.3,-0.2 0.6333,-0.3 1,-0.3 l 1.75,0 0.55,2 -2.3,0 -3,5.4 -6.35,3 -11.95,-6.8 -1.15,-0.65 1.2,-1.6 z m -26.25,42.45 -3.8,0 -0.95,-0.25 -0.75,-0.7 -5.8,-9.3 -11.1,-2.15 -0.3,-2.1 2.2,0.4 10.4,1.95 6.3,10.15 2.75,0 2.15,0 -1.1,2 z m -32.4,-36.35 19.45,-11.05 1.05,1.7 -3.2,1.85 -15.7,8.9 -1.35,0.75 -0.25,-2.15 z"
           id="path4093"
           inkscape:connector-curvature="0"
           style="fill:#996a4d;stroke-linecap:round;stroke-linejoin:round" />
        <path
           d="m 650.15,391.15 0.7,4.95 -1.85,1.25 -0.6,-4.5 1.75,-1.7 z m 2.4,44.05 -5.8,9.3 -0.7,0.7 -1,0.25 -1.75,0 0,-2 1.75,0 6.25,-10.15 1.25,1.9 z m -25.4,-39.1 3.4,-23.9 c 0.0667,-0.5 0.2834,-0.91664 0.65,-1.25 0.36665,-0.33333 0.8,-0.5 1.3,-0.5 l 1.85,0 -0.8,2.05 -1.05,0 -3.55,24.85 -1.8,-1.25 z"
           id="path4095"
           inkscape:connector-curvature="0"
           style="fill:#cccccc;stroke-linecap:round;stroke-linejoin:round" />
        <path
           d="m 650.85,396.1 12.1,6.9 -1.2,1.6 -8.6,-4.85 -4.15,-2.4 1.85,-1.25 z m 10.9,8.5 -0.05,0 z m 18.45,24 -4.5,2.1 -0.45,0.2 -2.5,0.45 0,-2.05 2.1,-0.4 c 2.1,-1 4.2167,-2.01667 6.35,-3.05 l -1,2.75 z m -25.1,6.1 -2.55,0.5 -1.25,-1.9 3.8,-0.7 0,2.1 z m -49.95,-3.35 -2.4,-0.45 -0.5,-0.2 -4.45,-2.1 -1,-2.75 6.3,3.05 2.05,0.4 0,2.05 z m -6.9,-23.8 4.75,2.25 1.3,-0.7 0.25,2.15 -1.45,0.8 -6.3,-3 1.45,-1.5 z m 25.5,-9.5 3.4,-1.95 1.8,1.25 -4.15,2.4 -1.05,-1.7 z"
           id="path4097"
           inkscape:connector-curvature="0"
           style="fill:#9ebbc7;stroke-linecap:round;stroke-linejoin:round" />
        <path
           d="m 685.95,401.65 0.55,0 1.05,0.3 0.75,0.85 0.2,1.1 -3.05,27.15 -0.55,1.15 -1.1,0.6 -1.3,-0.2 c -0.39996,-0.23333 -0.6833,-0.55 -0.85,-0.95 l -1.45,-3.05 1,-2.75 2.25,4.95 2,-17.9 1.05,-9.25 -0.55,-2 z m -42.65,43.8 -6.6,0 1.1,-2 5.5,0 0,2 z m -45.5,-16.85 -1.4,3.05 -0.9,0.95 -1.25,0.2 c -0.4667,-0.10002 -0.85004,-0.3 -1.15,-0.6 -0.3,-0.33333 -0.4667,-0.71666 -0.5,-1.15 l -3.05,-27.15 c -0.0667,-0.4 -0.0167,-0.76667 0.15,-1.1 0.1667,-0.36668 0.4167,-0.65 0.75,-0.85 l 1.05,-0.3 2.25,0 1,0.3 0.75,0.7 2.75,4.9 -1.45,1.5 -3.05,-5.4 -2.25,0 3.05,27.15 2.25,-4.95 1,2.75 z"
           id="path4099"
           inkscape:connector-curvature="0"
           style="fill:#802b2b;stroke-linecap:round;stroke-linejoin:round" />
        <path
           d="m 672.75,431.35 -17.65,3.35 0,-2.1 4.4,-0.85 4.45,-0.8 4.4,-0.8 4.4,-0.85 0,2.05 z m -58.45,1.7 -9.15,-1.7 0,-2.05 4.45,0.85 4.4,0.8 0.3,2.1 z"
           id="path4101"
           inkscape:connector-curvature="0"
           style="fill:#caa202;stroke-linecap:round;stroke-linejoin:round" />
        <path
           d="m 633.55,372.5 5.4,0 1.35,5.4 -2.65,7.2 5.15,7.3 4.95,-4.05 0.65,4.5 -1.95,1.05 -4.65,2.4 -6.5,-10.85 1.15,-6.4 -1.35,-3.05 -1.55,-3.5 z m 28.15,32.1 0.05,0 1.15,0.65 3.75,8.95 10.9,3.25 5.9,-6.4 1,-5.3 2.05,-2.1 -1.05,9.25 -4.25,3.35 -5,3.9 -1.35,-0.65 -9.3,-4.15 -3.85,-10.75 z m -35.1,20.9 2.85,1.5 5,2.55 4.25,7.2 -0.9,6.7 -2.15,0 1.25,-5.6 -2.75,-5.4 -8.85,-4.65 -9.1,3.55 -2.2,-0.4 4.4,-1.9 4.3,-1.8 0.15,0 0,-0.1 3.75,-1.65 z m -5,-23.9 3.2,-1.85 -1.45,10.1 -12.15,5 -6.65,-3.6 1.35,-0.75 5.4,2.55 8.6,-3.4 1.7,-8.05 z"
           id="path4103"
           inkscape:connector-curvature="0"
           style="fill:#b7886a;stroke-linecap:round;stroke-linejoin:round" />
        <path
           d="m 638.95,372.5 6.5,0 2.3,15.85 -4.95,4.05 -5.15,-7.3 2.65,-7.2 -1.35,-5.4 z m -17.35,29.1 -1.7,8.05 -8.6,3.4 -5.4,-2.55 15.7,-8.9 z m -5.4,29.75 9.1,-3.55 8.85,4.65 2.75,5.4 -1.25,5.6 -2.75,0 -6.3,-10.15 -10.4,-1.95 z m 68,-27.7 2.3,0 -2.05,2.1 -1,5.3 -5.9,6.4 -10.9,-3.25 -3.75,-8.95 11.95,6.8 6.35,-3 3,-5.4 z"
           id="path4105"
           inkscape:connector-curvature="0"
           style="fill:#c7a48d;stroke-linecap:round;stroke-linejoin:round" />
        <path
           d="m 646.45,393.9 1.95,-1.05 0.6,4.5 2.3,16.1 0,19.85 -6.25,10.15 -1.75,0 5.15,-8.5 0,-21.5 -2,-19.55 z m -12.9,-21.4 1.55,3.5 -1.75,0 -3.9,37.45 0,13.55 -2.85,-1.5 0,-12.05 2.35,-16.1 3.55,-24.85 1.05,0 z"
           id="path4107"
           inkscape:connector-curvature="0"
           style="fill:#f2f2f2;stroke-linecap:round;stroke-linejoin:round" />
        <path
           d="m 635.1,376 1.35,3.05 -1.15,6.4 6.5,10.85 4.65,-2.4 2,19.55 0,21.5 -5.15,8.5 -5.5,0 0.9,-6.7 -4.25,-7.2 -5,-2.55 0,-13.55 3.9,-37.45 1.75,0 z m -3.5,29.35 -1,8.1 16.7,0 -0.95,-8.1 -0.15,-1.4 -14.45,0 -0.15,1.4 z m -34.8,3.7 0,16.8 -2.25,4.95 -3.05,-27.15 2.25,0 3.05,5.4 z m 84.4,16.8 0,-9.6 4.25,-3.35 -2,17.9 -2.25,-4.95 z"
           id="path4109"
           inkscape:connector-curvature="0"
           style="fill:#ac3939;stroke-linecap:round;stroke-linejoin:round" />
        <path
           d="m 651.3,433.3 0,-19.85 -2.3,-16.1 4.15,2.4 1.95,13.7 0,12.8 0,1 0,5.35 -3.8,0.7 z m -22.35,-35.95 -2.35,16.1 0,12.05 -3.75,1.65 0,-0.9 0,-12.8 0.5,-3.6 1.45,-10.1 4.15,-2.4 z"
           id="path4111"
           inkscape:connector-curvature="0"
           style="fill:#bdd6db;stroke-linecap:round;stroke-linejoin:round" />
        <path
           d="m 653.15,399.75 8.55,4.85 3.85,10.75 9.3,4.15 0,9.4 -2.1,0.4 0,-5.35 0,-0.95 -17.65,3.25 0,-12.8 -1.95,-13.7 z m -48.6,11.5 6.65,3.6 12.15,-5 -0.5,3.6 0,12.8 -17.7,-3.25 0,0.95 0,5.35 -2.05,-0.4 0,-16.85 1.45,-0.8 z"
           id="path4113"
           inkscape:connector-curvature="0"
           style="fill:#d3e1e7;stroke-linecap:round;stroke-linejoin:round" />
        <path
           d="m 630.6,413.45 1,-8.1 14.75,0 0.95,8.1 -16.7,0 z"
           id="path4115"
           inkscape:connector-curvature="0"
           style="fill:#4a3c55;stroke-linecap:round;stroke-linejoin:round" />
        <path
           d="m 646.35,405.35 -14.75,0 0.15,-1.4 14.45,0 0.15,1.4 z"
           id="path4117"
           inkscape:connector-curvature="0"
           style="fill:#c44d4d;stroke-linecap:round;stroke-linejoin:round" />
        <path
           d="m 622.85,426.25 0,0.9 0,0.1 -0.15,0 -4.3,-0.85 -4.4,-0.8 -4.4,-0.85 -4.45,-0.8 0,-0.95 17.7,3.25 z m -19.75,-14.2 0,16.85 -6.3,-3.05 0,-16.8 6.3,3 z m 78.1,4.2 0,9.6 c -2.13335,1.03333 -4.25005,2.05 -6.35,3.05 l 0,-9.4 1.35,0.65 5,-3.9 z m -17.25,9.35 -4.45,0.8 -4.4,0.85 0,-1 17.65,-3.25 0,0.95 -4.4,0.8 -4.4,0.85 z"
           id="path4119"
           inkscape:connector-curvature="0"
           style="fill:#b9ced7;stroke-linecap:round;stroke-linejoin:round" />
        <path
           d="m 605.15,429.3 0,-5.35 4.45,0.8 0,5.4 -4.45,-0.85 z m 8.85,-3.7 4.4,0.8 0,2.65 -4.4,1.9 0,-5.35 z m 45.5,0.8 4.45,-0.8 0,5.35 -4.45,0.8 0,-5.35 z m 8.85,-1.65 4.4,-0.8 0,5.35 -4.4,0.85 0,-5.4 z"
           id="path4121"
           inkscape:connector-curvature="0"
           style="fill:#ecbd02;stroke-linecap:round;stroke-linejoin:round" />
        <path
           d="m 609.6,424.75 4.4,0.85 0,5.35 -4.4,-0.8 0,-5.4 z m 8.8,1.65 4.3,0.85 -4.3,1.8 0,-2.65 z m 41.1,0 0,5.35 -4.4,0.85 0,-5.35 4.4,-0.85 z m 4.45,4.55 0,-5.35 4.4,-0.85 0,5.4 -4.4,0.8 z"
           id="path4123"
           inkscape:connector-curvature="0"
           style="fill:#ffcc00;stroke-linecap:round;stroke-linejoin:round" />
        <path
           d="m 676.45,149.05 0,1.6 -2.2,0 0,3.4 -1.6,-1.25 0,-2.15 c 0,-0.43334 0.1667,-0.80001 0.5,-1.1 0.3,-0.33333 0.66665,-0.5 1.1,-0.5 l 2.2,0 z m -10.5,48.4 0,1.6 -3.55,0 -0.95,-0.3 -0.55,-0.8 c -0.13334,-0.33333 -0.13334,-0.66666 0,-1 l 10.5,-29.8 2.85,-3.4 -11.85,33.7 3.55,0 z m -34.45,-46.2 0,-1.6 20,0 0,1.6 -20,0 z m -24.95,-2.2 2.2,0 c 0.43335,0 0.8167,0.16667 1.15,0.5 0.3,0.3 0.45,0.66667 0.45,1.1 l 0,2.15 -1.6,1.25 0,-3.4 -2.2,0 0,-1.6 z m 10.55,48.4 3.5,0 -11.85,-33.7 2.9,3.4 10.45,29.8 0.05,1 -0.6,0.8 -0.95,0.3 -3.5,0 0,-1.6 z"
           id="path4125"
           inkscape:connector-curvature="0"
           style="fill:#c4c4c4;stroke-linecap:round;stroke-linejoin:round" />
        <path
           d="m 676.45,150.65 0,-1.6 4.55,0 c 0.3333,0 0.6333,0.10001 0.9,0.3 l 0.6,0.75 7.9,20.45 0.1,0.85 -0.4,0.85 -22.95,26.3 -0.5,0.4 -0.7,0.1 0,-1.6 11,-12.65 11.95,-13.65 -2.85,-7.4 -5.05,-13.1 -4.55,0 z m -17.05,21.3 1.25,1.2 -7.15,14.25 -0.6,0.65 -0.8,0.25 -21.15,0 -0.85,-0.25 -0.6,-0.65 -7.1,-14.25 1.2,-1.2 7.35,14.75 21.15,0 7.3,-14.75 z m -27.9,-22.3 0,1.6 -7.9,6.35 -0.35,-1.7 7.3,-5.9 c 0.26665,-0.23334 0.5833,-0.35 0.95,-0.35 z m 20,1.6 0,-1.6 c 0.39996,0 0.7166,0.11666 0.95,0.35 l 7.35,5.9 -0.4,1.7 -7.9,-6.35 z m -44.95,-2.2 0,1.6 -4.5,0 -5.1,13.1 -2.85,7.4 11.95,13.65 11.05,12.65 0,1.6 -0.65,-0.1 -0.55,-0.4 -23,-26.3 c -0.16666,-0.23334 -0.28336,-0.51668 -0.35,-0.85 -0.0667,-0.30001 -0.0333,-0.58333 0.1,-0.85 l 7.95,-20.45 c 0.1,-0.33332 0.28336,-0.58332 0.55,-0.75 0.2667,-0.19999 0.5667,-0.3 0.9,-0.3 l 4.5,0 z"
           id="path4127"
           inkscape:connector-curvature="0"
           style="fill:#8f9746;stroke-linecap:round;stroke-linejoin:round" />
        <path
           d="m 676.45,150.65 4.55,0 5.05,13.1 -5.9,0 2.85,7.4 -9.05,13.65 3,0 -11,12.65 10.5,-33.7 0,-13.1 z m -52.85,6.95 7.9,-6.35 0,24.9 0,0.1 c 0,1.03334 0.36664,1.90001 1.1,2.6 0.7,0.73333 1.5667,1.1 2.6,1.1 l 12.65,0 c 1.03336,0 1.90006,-0.36667 2.6,-1.1 0.7,-0.69999 1.05,-1.56666 1.05,-2.6 l 0,-0.2 0,-24.8 7.9,6.35 0,14.35 -7.3,14.75 -4.25,-2.8 -12.65,0 -4.25,2.8 -7.35,-14.75 0,-14.35 z m -17.05,-6.95 0,13.1 10.55,33.7 -11.05,-12.65 2.95,0 -8.95,-13.65 2.85,-7.4 -5.95,0 5.1,-13.1 4.5,0 z"
           id="path4129"
           inkscape:connector-curvature="0"
           style="fill:#aeb762;stroke-linecap:round;stroke-linejoin:round" />
        <path
           d="m 686.05,163.75 2.85,7.4 -11.95,13.65 -3,0 9.05,-13.65 -2.85,-7.4 5.9,0 z m -80,21.05 -11.95,-13.65 2.85,-7.4 5.95,0 -2.85,7.4 8.95,13.65 -2.95,0 z m 24.9,1.9 4.25,-2.8 12.65,0 4.25,2.8 -21.15,0 z"
           id="path4131"
           inkscape:connector-curvature="0"
           style="fill:#9aa34b;stroke-linecap:round;stroke-linejoin:round" />
        <path
           d="m 672.65,152.8 1.6,1.25 -2.45,0.6 -9.8,2.35 -2.6,0.6 0.4,-1.7 12.85,-3.1 z m 1.6,10.95 -2.85,3.4 -10.75,6 -1.25,-1.2 2.65,-1.45 9.75,-5.4 2.45,-1.35 z m -51,-7.85 0.35,1.7 -2.6,-0.6 -9.8,-2.35 -2.45,-0.6 1.6,-1.25 12.9,3.1 z m -12.05,9.2 9.75,5.4 2.65,1.45 -1.2,1.2 -10.75,-6 -2.9,-3.4 2.45,1.35 z"
           id="path4133"
           inkscape:connector-curvature="0"
           style="fill:#9ebbc7;stroke-linecap:round;stroke-linejoin:round" />
        <path
           d="m 674.25,154.05 0,-3.4 2.2,0 0,13.1 -10.5,33.7 -3.55,0 11.85,-33.7 0,-9.7 z m -42.75,-2.8 20,0 0,24.8 c -0.0333,-0.93333 -0.3833,-1.73333 -1.05,-2.4 -0.7,-0.73333 -1.5667,-1.1 -2.6,-1.1 l -12.65,0 c -1.0333,0 -1.9,0.36667 -2.6,1.1 -0.70004,0.69999 -1.0667,1.53332 -1.1,2.5 l 0,-24.9 z m -22.75,-0.6 0,3.4 0,9.7 11.85,33.7 -3.5,0 -10.55,-33.7 0,-13.1 2.2,0 z"
           id="path4135"
           inkscape:connector-curvature="0"
           style="fill:#eeeeee;stroke-linecap:round;stroke-linejoin:round" />
        <path
           d="m 671.8,154.65 2.45,-0.6 0,9.7 -2.45,1.35 0,-10.45 z m -9.75,15.85 -2.65,1.45 0,-14.35 2.6,-0.6 0.05,13.5 z m -53.3,-6.75 0,-9.7 2.45,0.6 0,10.45 -2.45,-1.35 z m 12.2,6.75 0.05,-13.5 2.6,0.6 0,14.35 -2.65,-1.45 z"
           id="path4137"
           inkscape:connector-curvature="0"
           style="fill:#bdd6db;stroke-linecap:round;stroke-linejoin:round" />
        <path
           d="m 671.8,165.1 -9.75,5.4 -0.05,-13.5 9.8,-2.35 0,10.45 z m -60.6,-10.45 9.8,2.35 -0.05,13.5 -9.75,-5.4 0,-10.45 z"
           id="path4139"
           inkscape:connector-curvature="0"
           style="fill:#d3e1e7;stroke-linecap:round;stroke-linejoin:round" />
        <path
           d="m 651.5,176.05 0,0.2 c 0,1.03334 -0.35,1.90001 -1.05,2.6 -0.7,0.73333 -1.5667,1.1 -2.6,1.1 l -12.65,0 c -1.0333,0 -1.9,-0.36667 -2.6,-1.1 -0.73336,-0.69999 -1.1,-1.56666 -1.1,-2.6 l 0,-0.1 c 0.0333,-0.96667 0.39996,-1.8 1.1,-2.5 0.7,-0.73333 1.5667,-1.1 2.6,-1.1 l 12.65,0 c 1.03336,0 1.90006,0.36667 2.6,1.1 0.6667,0.66667 1.0167,1.46667 1.05,2.4 z"
           id="path4141"
           inkscape:connector-curvature="0"
           style="fill:#4a3c55;stroke-linecap:round;stroke-linejoin:round" />
        <path
           d="m 658.2,244.8 c -0.5,-0.26667 -0.8333,-0.70001 -1,-1.3 -0.13335,-0.56667 -0.0667,-1.1 0.2,-1.6 0.3,-0.5 0.73336,-0.83333 1.3,-1 l 1.65,0.2 c 0.5,0.30001 0.8166,0.73334 0.95,1.3 0.1667,0.6 0.1,1.15 -0.2,1.65 -0.2667,0.5 -0.70004,0.81667 -1.3,0.95 l -1.6,-0.2 z m -33.4,-1.3 c -0.1334,0.59999 -0.45,1.03333 -0.95,1.3 l -1.65,0.2 c -0.5667,-0.13333 -1.00005,-0.45 -1.3,-0.95 -0.26664,-0.5 -0.3333,-1.05 -0.2,-1.65 0.1667,-0.56667 0.5,-1 1,-1.3 l 1.6,-0.2 c 0.6,0.16667 1.0334,0.5 1.3,1 0.29996,0.5 0.3666,1.03333 0.2,1.6 z m 50.55,31.05 c 0,-0.56666 0.21665,-1.06666 0.65,-1.5 0.43335,-0.43333 0.93335,-0.65 1.5,-0.65 0.56665,0 1.06665,0.21667 1.5,0.65 0.43335,0.43334 0.65,0.93334 0.65,1.5 0,0.56667 -0.21665,1.06667 -0.65,1.5 -0.43335,0.43334 -0.93335,0.65 -1.5,0.65 -0.56665,0 -1.06665,-0.21666 -1.5,-0.65 -0.43335,-0.43333 -0.65,-0.93333 -0.65,-1.5 z m -73,0 c 0,-0.56666 0.21665,-1.06666 0.65,-1.5 0.43335,-0.43333 0.93335,-0.65 1.5,-0.65 0.56665,0 1.06665,0.21667 1.5,0.65 0.43335,0.43334 0.65,0.93334 0.65,1.5 0,0.56667 -0.21665,1.06667 -0.65,1.5 -0.43335,0.43334 -0.93335,0.65 -1.5,0.65 -0.56665,0 -1.06665,-0.21666 -1.5,-0.65 -0.43335,-0.43333 -0.65,-0.93333 -0.65,-1.5 z m 21.5,29.75 c 0.5,0.3 0.8166,0.73336 0.95,1.3 0.1667,0.6 0.1,1.15 -0.2,1.65 -0.2667,0.5 -0.70004,0.81668 -1.3,0.95 l -1.6,-0.2 c -0.5,-0.26666 -0.8333,-0.69998 -1,-1.3 -0.13335,-0.56667 -0.0667,-1.1 0.2,-1.6 0.3,-0.5 0.73336,-0.83334 1.3,-1 l 1.65,0.2 z m 34.85,3.9 c -0.5667,-0.13332 -1.00005,-0.45 -1.3,-0.95 -0.26664,-0.5 -0.3333,-1.05 -0.2,-1.65 0.1667,-0.56667 0.5,-1.00002 1,-1.3 l 1.6,-0.2 c 0.6,0.16666 1.0334,0.5 1.3,1 0.29996,0.5 0.3666,1.03333 0.2,1.6 -0.1334,0.60002 -0.45,1.03334 -0.95,1.3 l -1.65,0.2 z"
           id="path4143"
           inkscape:connector-curvature="0"
           style="fill:#eff4f5;stroke-linecap:round;stroke-linejoin:round" />
        <path
           d="m 657.2,243.5 c 0.1667,0.59999 0.5,1.03333 1,1.3 l 1.6,0.2 c 0.6,-0.13333 1.0334,-0.45 1.3,-0.95 0.29996,-0.5 0.3666,-1.05 0.2,-1.65 -0.1334,-0.56667 -0.45,-1 -0.95,-1.3 l -1.65,-0.2 c -0.5667,0.16667 -1.00005,0.5 -1.3,1 -0.26664,0.5 -0.3333,1.03333 -0.2,1.6 z m -17.7,-6.95 c -0.43335,0.43334 -0.65,0.93334 -0.65,1.5 0,0.56667 0.21665,1.06667 0.65,1.5 0.43335,0.43334 0.93335,0.65 1.5,0.65 0.56665,0 1.06665,-0.21666 1.5,-0.65 0.43335,-0.43333 0.65,-0.93333 0.65,-1.5 0,-0.56666 -0.21665,-1.06666 -0.65,-1.5 -0.43335,-0.43333 -0.93335,-0.65 -1.5,-0.65 -0.56665,0 -1.06665,0.21667 -1.5,0.65 z m -15.65,8.25 c 0.5,-0.26667 0.8166,-0.70001 0.95,-1.3 0.1667,-0.56667 0.1,-1.1 -0.2,-1.6 -0.2667,-0.5 -0.70004,-0.83333 -1.3,-1 l -1.6,0.2 c -0.5,0.30001 -0.8333,0.73334 -1,1.3 -0.13335,0.6 -0.0667,1.15 0.2,1.65 0.3,0.5 0.73336,0.81667 1.3,0.95 l 1.65,-0.2 z m 17.2,-0.5 -0.05,0 c -8.3333,0 -15.4667,2.95 -21.4,8.85 -5.9,5.9333 -8.85,13.06664 -8.85,21.4 0,8.36666 2.95,15.48333 8.85,21.35 5.9333,5.9333 13.0667,8.9 21.4,8.9 8.3333,0 15.44995,-2.93333 21.35,-8.8 l 0.05,-0.1 c 5.9333,-5.86667 8.9,-12.98334 8.9,-21.35 0,-8.36668 -2.9667,-15.5 -8.9,-21.4 -5.9,-5.9 -13.0167,-8.85 -21.35,-8.85 z m -0.05,60.5 0.05,0 z m -21.4,-8.9 0.05,0.05 z m 0,-42.75 -0.05,0.05 z m 55.05,3.7 c 0.1667,-0.56667 0.10006,-1.10002 -0.2,-1.6 -0.26665,-0.5 -0.7,-0.83333 -1.3,-1 l -1.6,0.2 c -0.5,0.3 -0.8333,0.73333 -1,1.3 -0.1334,0.6 -0.0667,1.15 0.2,1.65 0.3,0.5 0.73334,0.81667 1.3,0.95 l 1.65,-0.2 c 0.5,-0.26667 0.81666,-0.7 0.95,-1.3 z m 1.35,16.2 c -0.43335,0.43334 -0.65,0.93334 -0.65,1.5 0,0.56667 0.21665,1.06667 0.65,1.5 0.43335,0.43334 0.93335,0.65 1.5,0.65 0.56665,0 1.06665,-0.21666 1.5,-0.65 0.43335,-0.43333 0.65,-0.93333 0.65,-1.5 0,-0.56666 -0.21665,-1.06666 -0.65,-1.5 -0.43335,-0.43333 -0.93335,-0.65 -1.5,-0.65 -0.56665,0 -1.06665,0.21667 -1.5,0.65 z m 8.25,1.5 c 0,11.96666 -4.23334,22.15 -12.7,30.55 -8.4,8.46665 -18.5833,12.7 -30.55,12.7 -11.93335,0 -22.1167,-4.23335 -30.55,-12.7 -7.3,-7.26666 -11.43334,-15.86666 -12.4,-25.8 l -0.25,-4.75 c 0,-11.93333 4.21666,-22.11667 12.65,-30.55 8.4333,-8.43333 18.61665,-12.65 30.55,-12.65 11.9667,0 22.15,4.21667 30.55,12.65 8.46666,8.43333 12.7,18.61667 12.7,30.55 z M 603,273.05 c -0.43335,0.43334 -0.65,0.93334 -0.65,1.5 0,0.56667 0.21665,1.06667 0.65,1.5 0.43335,0.43334 0.93335,0.65 1.5,0.65 0.56665,0 1.06665,-0.21666 1.5,-0.65 0.43335,-0.43333 0.65,-0.93333 0.65,-1.5 0,-0.56666 -0.21665,-1.06666 -0.65,-1.5 -0.43335,-0.43333 -0.93335,-0.65 -1.5,-0.65 -0.56665,0 -1.06665,0.21667 -1.5,0.65 z m 8.25,-15.65 c 0.3,-0.5 0.36664,-1.05 0.2,-1.65 -0.13335,-0.56667 -0.45,-1 -0.95,-1.3 l -1.65,-0.2 c -0.5667,0.16667 -1,0.5 -1.3,1 -0.2667,0.5 -0.3333,1.03333 -0.2,1.6 0.16666,0.6 0.5,1.03333 1,1.3 l 1.6,0.2 c 0.6,-0.13333 1.03334,-0.45 1.3,-0.95 z m -3.7,36.5 c 0.3,0.5 0.7333,0.81667 1.3,0.95 l 1.65,-0.2 c 0.5,-0.26667 0.81665,-0.7 0.95,-1.3 0.1667,-0.56667 0.10005,-1.1 -0.2,-1.6 -0.26666,-0.5 -0.7,-0.83334 -1.3,-1 l -1.6,0.2 c -0.5,0.3 -0.83334,0.73332 -1,1.3 -0.1333,0.6 -0.0667,1.15 0.2,1.65 z m 17.25,11.7 c -0.1334,-0.56667 -0.45,-1.00002 -0.95,-1.3 l -1.65,-0.2 c -0.5667,0.16666 -1.00005,0.5 -1.3,1 -0.26664,0.5 -0.3333,1.03333 -0.2,1.6 0.1667,0.60002 0.5,1.03334 1,1.3 l 1.6,0.2 c 0.6,-0.13332 1.0334,-0.45 1.3,-0.95 0.29996,-0.5 0.3666,-1.05 0.2,-1.65 z m 46.75,-10.95 1.6,0.2 c 0.6,-0.13333 1.03335,-0.45 1.3,-0.95 0.3,-0.5 0.36665,-1.05 0.2,-1.65 -0.13334,-0.56668 -0.45,-1 -0.95,-1.3 l -1.65,-0.2 c -0.56666,0.16666 -1,0.5 -1.3,1 -0.26666,0.5 -0.3333,1.03333 -0.2,1.6 0.1667,0.6 0.5,1.03333 1,1.3 z M 641,308.9 c -0.56665,0 -1.06665,0.21667 -1.5,0.65 -0.43335,0.43334 -0.65,0.93334 -0.65,1.5 0,0.56667 0.21665,1.06667 0.65,1.5 0.43335,0.43334 0.93335,0.65 1.5,0.65 0.56665,0 1.06665,-0.21666 1.5,-0.65 0.43335,-0.43333 0.65,-0.93333 0.65,-1.5 0,-0.56666 -0.21665,-1.06666 -0.65,-1.5 -0.43335,-0.43333 -0.93335,-0.65 -1.5,-0.65 z m 16.4,-1.65 c 0.3,0.5 0.73336,0.81668 1.3,0.95 l 1.65,-0.2 c 0.5,-0.26666 0.8166,-0.69998 0.95,-1.3 0.1667,-0.56667 0.1,-1.1 -0.2,-1.6 -0.2667,-0.5 -0.70004,-0.83334 -1.3,-1 l -1.6,0.2 c -0.5,0.3 -0.8333,0.73336 -1,1.3 -0.13335,0.6 -0.0667,1.15 0.2,1.65 z"
           id="path4145"
           inkscape:connector-curvature="0"
           style="fill:#d3e1e7;stroke-linecap:round;stroke-linejoin:round" />
        <path
           d="m 638.85,238.05 c 0,-0.56666 0.21665,-1.06666 0.65,-1.5 0.43335,-0.43333 0.93335,-0.65 1.5,-0.65 0.56665,0 1.06665,0.21667 1.5,0.65 0.43335,0.43334 0.65,0.93334 0.65,1.5 0,0.56667 -0.21665,1.06667 -0.65,1.5 -0.43335,0.43334 -0.93335,0.65 -1.5,0.65 -0.56665,0 -1.06665,-0.21666 -1.5,-0.65 -0.43335,-0.43333 -0.65,-0.93333 -0.65,-1.5 z m 35.6,17.2 c 0.3,0.5 0.36665,1.03333 0.2,1.6 -0.13334,0.6 -0.45,1.03333 -0.95,1.3 l -1.65,0.2 c -0.56666,-0.13333 -1,-0.45 -1.3,-0.95 -0.26666,-0.5 -0.3333,-1.05 -0.2,-1.65 0.1667,-0.56667 0.5,-1 1,-1.3 l 1.6,-0.2 c 0.6,0.16667 1.03335,0.5 1.3,1 z m 12.05,19.3 c 0,12.56667 -4.45,23.28334 -13.35,32.15 -8.8667,8.9 -19.58335,13.35 -32.15,13.35 -12.56665,0 -23.3,-4.45 -32.2,-13.35 -7.73335,-7.73333 -12.0833,-16.86666 -13.05,-27.4 l -0.25,-4.75 c 0,-12.56666 4.43335,-23.29998 13.3,-32.2 8.9,-8.86666 19.63335,-13.3 32.2,-13.3 12.56665,0 23.2833,4.43334 32.15,13.3 8.9,8.9 13.35,19.63334 13.35,32.2 z m -14.95,30.55 c 8.46666,-8.4 12.7,-18.58334 12.7,-30.55 0,-11.93333 -4.23334,-22.11667 -12.7,-30.55 -8.4,-8.43333 -18.5833,-12.65 -30.55,-12.65 -11.93335,0 -22.1167,4.21667 -30.55,12.65 -8.43334,8.43333 -12.65,18.61667 -12.65,30.55 l 0.25,4.75 c 0.96666,9.93334 5.1,18.53334 12.4,25.8 8.4333,8.46665 18.61665,12.7 30.55,12.7 11.9667,0 22.15,-4.23335 30.55,-12.7 z m -60.1,-49.35 c 0.1667,0.6 0.10005,1.15 -0.2,1.65 -0.26666,0.5 -0.7,0.81667 -1.3,0.95 l -1.6,-0.2 c -0.5,-0.26667 -0.83334,-0.7 -1,-1.3 -0.1333,-0.56667 -0.0667,-1.10002 0.2,-1.6 0.3,-0.5 0.7333,-0.83333 1.3,-1 l 1.65,0.2 c 0.5,0.3 0.81665,0.73333 0.95,1.3 z m -2.6,39.1 c -0.5667,-0.13333 -1,-0.45 -1.3,-0.95 -0.2667,-0.5 -0.3333,-1.05 -0.2,-1.65 0.16666,-0.56668 0.5,-1 1,-1.3 l 1.6,-0.2 c 0.6,0.16666 1.03334,0.5 1.3,1 0.3,0.5 0.36664,1.03333 0.2,1.6 -0.13335,0.6 -0.45,1.03333 -0.95,1.3 l -1.65,0.2 z m 64.3,0 -1.6,-0.2 c -0.5,-0.26667 -0.8333,-0.7 -1,-1.3 -0.1334,-0.56667 -0.0667,-1.1 0.2,-1.6 0.3,-0.5 0.73334,-0.83334 1.3,-1 l 1.65,0.2 c 0.5,0.3 0.81666,0.73332 0.95,1.3 0.1667,0.6 0.10006,1.15 -0.2,1.65 -0.26665,0.5 -0.7,0.81667 -1.3,0.95 z m -33.65,14.7 c 0.43335,-0.43333 0.93335,-0.65 1.5,-0.65 0.56665,0 1.06665,0.21667 1.5,0.65 0.43335,0.43334 0.65,0.93334 0.65,1.5 0,0.56667 -0.21665,1.06667 -0.65,1.5 -0.43335,0.43334 -0.93335,0.65 -1.5,0.65 -0.56665,0 -1.06665,-0.21666 -1.5,-0.65 -0.43335,-0.43333 -0.65,-0.93333 -0.65,-1.5 0,-0.56666 0.21665,-1.06666 0.65,-1.5 z"
           id="path4147"
           inkscape:connector-curvature="0"
           style="fill:#9ebbc7;stroke-linecap:round;stroke-linejoin:round" />
        <path
           d="m 641,244.3 0.05,0 c 8.3333,0 15.45,2.95 21.35,8.85 l -10.65,10.7 c -2.9667,-2.9333 -6.5333,-4.4 -10.7,-4.4 L 641,244.3 Z m 0.05,15.15 -0.05,0 z m 30.25,15.1 c 0,8.36666 -2.9667,15.48333 -8.9,21.35 l -0.05,0.1 -10.65,-10.65 0.05,-0.1 c 2.93335,-2.93332 4.4,-6.4833 4.4,-10.65 l 15.15,-0.05 z m -15.15,0.05 0,-0.05 z M 641,304.8 c -8.3333,0 -15.44995,-2.95 -21.35,-8.85 l 10.7,-10.7 c 2.9333,2.96667 6.4833,4.45 10.65,4.45 l 0,15.1 z m -30.25,-30.25 c 0,-8.33336 2.93335,-15.45002 8.8,-21.35 l 10.75,10.75 c -2.9333,2.93333 -4.4,6.46666 -4.4,10.6 l -15.15,0 z"
           id="path4149"
           inkscape:connector-curvature="0"
           style="fill:#bf5237;stroke-linecap:round;stroke-linejoin:round" />
        <path
           d="m 662.4,253.15 c 5.9333,5.9 8.9,13.03332 8.9,21.4 l -15.15,0 c 0,-4.16667 -1.46665,-7.73332 -4.4,-10.7 l 10.65,-10.7 z m -21.35,51.65 -0.05,0 0,-15.1 c 4.1667,0 7.73334,-1.45 10.7,-4.35 L 662.35,296 c -5.9,5.86667 -12.99996,8.8 -21.3,8.8 z m -0.05,-15.1 0.05,0 z m -21.35,6.25 -0.05,-0.05 c -5.9,-5.86667 -8.85,-12.98334 -8.85,-21.35 l 15.15,0 c 0,4.2 1.48336,7.76668 4.45,10.7 l -10.7,10.7 z m 6.25,-21.4 0,0.05 z m -6.35,-21.35 0.05,-0.05 c 5.9333,-5.9 13.0667,-8.85 21.4,-8.85 l 0,15.15 c -4.1667,0 -7.7167,1.4667 -10.65,4.4 l -0.05,0.1 -10.75,-10.75 z"
           id="path4151"
           inkscape:connector-curvature="0"
           style="fill:#9e442e;stroke-linecap:round;stroke-linejoin:round" />
        <path
           d="m 641,259.45 0.05,0 c 4.1667,0 7.7333,1.4667 10.7,4.4 2.93335,2.96665 4.4,6.5333 4.4,10.7 0,4.2 -1.46665,7.76668 -4.4,10.7 l -0.05,0.1 c -2.96666,2.9 -6.51665,4.35 -10.65,4.35 -4.2,0 -7.7667,-1.48333 -10.7,-4.45 -2.96664,-2.93332 -4.45,-6.4833 -4.45,-10.65 0,-4.16665 1.4667,-7.71664 4.4,-10.65 l 0.05,-0.1 c 2.9333,-2.9333 6.4833,-4.4 10.65,-4.4 z m 15.15,15.1 0,0.05 z m -15.1,15.15 -0.05,0 z m -15.15,-15.1 0,-0.05 z m 24.95,-8.7 -0.65,-0.5 c -0.6,-0.4 -1.2667,-0.6 -2,-0.6 -1.0667,0 -1.95006,0.36666 -2.65,1.1 -0.7667,0.73333 -1.15,1.61666 -1.15,2.65 0,0.73333 0.20004,1.39998 0.6,2 l 0.55,0.65 c 0.7,0.73332 1.58336,1.1 2.65,1.1 1.03334,0 1.91664,-0.36668 2.65,-1.1 0.7,-0.73333 1.05,-1.61666 1.05,-2.65 0,-1.03334 -0.35,-1.91667 -1.05,-2.65 z"
           id="path4153"
           inkscape:connector-curvature="0"
           style="fill:#4a3c55;stroke-linecap:round;stroke-linejoin:round" />
        <path
           d="m 650.2,265.4 0.65,0.5 c 0.7,0.73333 1.05,1.61666 1.05,2.65 0,1.03334 -0.35,1.91667 -1.05,2.65 -0.73336,0.73332 -1.61666,1.1 -2.65,1.1 -1.0667,0 -1.95006,-0.36668 -2.65,-1.1 L 645,270.55 c -0.39996,-0.60002 -0.6,-1.26667 -0.6,-2 0,-1.03334 0.3833,-1.91667 1.15,-2.65 0.7,-0.73334 1.58336,-1.1 2.65,-1.1 0.73335,0 1.40004,0.2 2,0.6 z"
           id="path4155"
           inkscape:connector-curvature="0"
           style="fill:#594a68;stroke-linecap:round;stroke-linejoin:round" />
        <path
           d="m 290.35,310.6 c 0.53333,-0.4 1.06666,-0.58334 1.6,-0.55 l 4.05,0 c 0.6,0 1.15,0.18334 1.65,0.55 l 0.25,0.2 c 0.36666,0.33333 0.6,0.8 0.7,1.4 l 0.05,0.15 0.9,6.3 5.8,3.25 0.4,-0.75 c 0.16666,-0.5 0.5,-0.86667 1,-1.1 0.33334,-0.26667 0.80002,-0.4 1.4,-0.4 l 0.7,0 1.15,0.25 c 0.5,0.16665 0.91666,0.56664 1.25,1.2 l 0.1,0.3 0.15,0.95 0,0.25 -0.95,8.35 -0.05,0.25 -0.7,1.25 -1.3,0.7 -0.5,0.05 -1.3,-0.3 -0.6,-0.4 -0.4,0.1 -6.2,1.15 -1.35,2.1 -0.85,0.85 -0.45,0.2 -0.95,0.15 -3.8,0 -0.9,-0.15 -0.5,-0.2 -0.8,-0.8 -1.35,-2.15 -6.25,-1.15 -0.4,-0.15 -0.65,0.45 -1.25,0.3 -0.4,-0.05 c -0.6,-0.1 -1.06667,-0.33335 -1.4,-0.7 l -0.25,-0.35 c -0.2,-0.23333 -0.35,-0.53332 -0.45,-0.9 l 0,-0.25 -0.95,-8.35 -0.05,-0.25 c 0,-0.36666 0.05,-0.68334 0.15,-0.95 l 0.1,-0.3 c 0.33334,-0.63333 0.76666,-1.03332 1.3,-1.2 0.33333,-0.2 0.68334,-0.28333 1.05,-0.25 l 0.7,0 1.35,0.35 0.95,0.95 0.55,0.95 c 1.96667,-1.0667 3.91668,-2.15003 5.85,-3.25 l 0.9,-6.3 0,-0.15 c 0.1,-0.6 0.35,-1.06667 0.75,-1.4 l 0.2,-0.2 z m 7.8,25.25 0,0.05 z m -8.25,0.05 -0.05,-0.05 z m 1.45,-23.3 -1.05,7.3 -7.6,4.2 -1.45,-0.7 -0.9,-1.45 -0.2,-0.2 -0.35,-0.1 -0.7,0 -0.3,0.1 -0.25,0.25 -0.05,0.35 0.95,8.35 0.15,0.35 0.4,0.2 0.35,-0.1 0.3,-0.3 0.45,-0.95 1.4,0.65 0.15,0.1 7.1,1.25 1.8,2.9 0.25,0.25 0.3,0.05 3.8,0 0.3,-0.05 0.25,-0.25 1.8,-2.9 7.1,-1.25 0.15,-0.1 1.4,-0.65 0.45,0.95 0.25,0.3 0.4,0.1 0.35,-0.2 0.2,-0.35 0.95,-8.35 -0.05,-0.35 -0.25,-0.25 -0.35,-0.1 -0.7,0 -0.3,0.1 c -0.13333,0.0333 -0.21667,0.1 -0.25,0.2 l -0.85,1.45 -1.5,0.7 -7.55,-4.2 -1.05,-7.3 -0.2,-0.4 -0.45,-0.15 -4.05,0 c -0.13332,0 -0.26665,0.05 -0.4,0.15 l -0.2,0.4 z"
           id="path4157"
           inkscape:connector-curvature="0"
           style="fill:#ffffff;stroke-linecap:round;stroke-linejoin:round" />
        <path
           d="m 290.3,319.9 1.05,-7.3 0.2,-0.4 c 0.13332,-0.1 0.26665,-0.15 0.4,-0.15 l 4.05,0 0.45,0.15 0.2,0.4 1.05,7.3 -0.55,0.4 0.7,4.95 0,6.15 0.4,0.5 -1.8,2.9 -0.25,0.25 -0.3,0.05 -3.8,0 -0.3,-0.05 -0.25,-0.25 -1.8,-2.9 0.35,-0.5 0,-6.15 0.75,-4.95 -0.55,-0.4 z m 16.45,3.5 0.85,-1.45 c 0.0333,-0.1 0.11667,-0.16667 0.25,-0.2 l 0.3,-0.1 0.7,0 0.35,0.1 0.25,0.25 0.05,0.35 -0.95,8.35 -0.2,0.35 -0.35,0.2 -0.4,-0.1 -0.25,-0.3 -0.45,-0.95 0.3,-0.85 0,-5.15 -0.45,-0.5 z m -25.65,6.5 -0.45,0.95 -0.3,0.3 -0.35,0.1 -0.4,-0.2 -0.15,-0.35 -0.95,-8.35 0.05,-0.35 0.25,-0.25 0.3,-0.1 0.7,0 0.35,0.1 0.2,0.2 0.9,1.45 -0.45,0.5 0,5.15 0.3,0.85 z m 15.2,-7.1 -4.6,0 -0.35,2.45 5.25,0 -0.3,-2.45 z"
           id="path4159"
           inkscape:connector-curvature="0"
           style="fill:#ac3939;stroke-linecap:round;stroke-linejoin:round" />
        <path
           d="m 297.7,319.9 7.55,4.2 1.5,-0.7 0.45,0.5 0,5.15 -0.3,0.85 -1.4,0.65 -0.15,0.1 -7.1,1.25 -0.4,-0.5 0,-6.15 -0.7,-4.95 0.55,-0.4 z m -7.95,12 -7.1,-1.25 -0.15,-0.1 -1.4,-0.65 -0.3,-0.85 0,-5.15 0.45,-0.5 1.45,0.7 7.6,-4.2 0.55,0.4 -0.75,4.95 0,6.15 -0.35,0.5 z"
           id="path4161"
           inkscape:connector-curvature="0"
           style="fill:#a8c7ce;stroke-linecap:round;stroke-linejoin:round" />
        <path
           d="m 291.7,322.8 4.6,0 0.3,2.45 -5.25,0 0.35,-2.45 z"
           id="path4163"
           inkscape:connector-curvature="0"
           style="fill:#4a3c55;stroke-linecap:round;stroke-linejoin:round" />
        <path
           d="m 193,311.1 0.85,0.45 43.5,38.3 c 0.33333,0.3 0.55,0.7 0.65,1.2 l 7.5,46.8 -0.25,1.25 -0.95,0.9 -50,21.9 -1.05,0.15 -0.95,-0.4 -35.95,-27.45 -31.8,0.95 -1.15,-0.3 c -0.33333,-0.23333 -0.58333,-0.53332 -0.75,-0.9 l -13,-32.4 -0.15,-0.9 0.35,-0.9 23,-34.35 c 0.30001,-0.43333 0.7,-0.71665 1.2,-0.85 l 58,-13.45 0.95,0 z m 50.5,87.05 -7.5,-46.8 -43.5,-38.3 -58,13.45 -23,34.3 13,32.4 32.5,-1 36.5,27.85 50,-21.9 z"
           id="path4165"
           inkscape:connector-curvature="0"
           style="fill:#5c4434;stroke-linecap:round;stroke-linejoin:round" />
        <path
           d="m 207.3,346.05 -3.5,12.25 7.15,-9.05 0,6.8 3.2,-4 7.9,7 4.85,30.05 -31.3,13.75 -4.75,-3.65 -4.05,-8.8 -14.9,-5.7 -5.75,-4.35 c -2.86666,-2.16665 -6.06666,-3.19998 -9.6,-3.1 l -22,0.7 -4.4,-11.05 12.15,-4.35 -13.9,0 15.3,-22.9 44.65,-10.35 18.95,16.75 z m -27.15,-4.25 c -1,-1 -2.21667,-1.5 -3.65,-1.5 -1.43333,0 -2.66667,0.5 -3.7,1.5 -1,1.03334 -1.5,2.26668 -1.5,3.7 0,1.43332 0.5,2.65 1.5,3.65 1.03334,1 2.26668,1.5 3.7,1.5 1.43333,0 2.65,-0.5 3.65,-1.5 1.03333,-1 1.55,-2.21668 1.55,-3.65 0,-1.43332 -0.51667,-2.66666 -1.55,-3.7 z m -12.1,3.5 c -0.5,-0.5 -1.11667,-0.75 -1.85,-0.75 -0.73333,0 -1.36666,0.25 -1.9,0.75 -0.5,0.53334 -0.75,1.16667 -0.75,1.9 0,0.73332 0.25,1.35 0.75,1.85 0.53334,0.5 1.16667,0.75 1.9,0.75 0.73333,0 1.35,-0.25 1.85,-0.75 0.53334,-0.5 0.8,-1.11668 0.8,-1.85 0,-0.73333 -0.26666,-1.36666 -0.8,-1.9 z"
           id="path4167"
           inkscape:connector-curvature="0"
           style="fill:#997055;stroke-linecap:round;stroke-linejoin:round" />
        <path
           d="m 203.8,358.3 3.5,-12.25 -18.95,-16.75 -44.65,10.35 -15.3,22.9 13.9,0 -12.15,4.35 4.4,11.05 22,-0.7 c 3.53334,-0.1 6.73334,0.93332 9.6,3.1 l 5.75,4.35 14.9,5.7 4.05,8.8 4.75,3.65 31.3,-13.75 -4.85,-30.05 -7.9,-7 -3.2,4 0,-6.8 -7.15,9.05 z m -27.3,-18 c 1.43333,0 2.65,0.5 3.65,1.5 1.03333,1.03334 1.55,2.26668 1.55,3.7 0,1.43332 -0.51667,2.65 -1.55,3.65 -1,1 -2.21667,1.5 -3.65,1.5 -1.43333,0 -2.66667,-0.5 -3.7,-1.5 -1,-1 -1.5,-2.21668 -1.5,-3.65 0,-1.43332 0.5,-2.66666 1.5,-3.7 1.03334,-1 2.26668,-1.5 3.7,-1.5 z m 59.5,11.05 7.5,46.8 -50,21.9 -36.5,-27.85 -32.5,1 -13,-32.4 23,-34.3 58,-13.45 43.5,38.3 z m -69.8,-6.8 c 0.73333,0 1.35,0.25 1.85,0.75 0.53334,0.53334 0.8,1.16667 0.8,1.9 0,0.73332 -0.26666,1.35 -0.8,1.85 -0.5,0.5 -1.11667,0.75 -1.85,0.75 -0.73333,0 -1.36666,-0.25 -1.9,-0.75 -0.5,-0.5 -0.75,-1.11668 -0.75,-1.85 0,-0.73333 0.25,-1.36666 0.75,-1.9 0.53334,-0.5 1.16667,-0.75 1.9,-0.75 z"
           id="path4169"
           inkscape:connector-curvature="0"
           style="fill:#836049;stroke-linecap:round;stroke-linejoin:round" />
        <path
           d="m 125.7,407.1 c 0.33333,-0.26666 0.73333,-0.4333 1.2,-0.5 l 25.75,-1.55 c 0.43333,0 0.83334,0.1 1.2,0.3 l 0.75,0.95 8.75,20.15 0.1,1.2 -0.65,1.05 -19.85,17.9 -1.1,0.45 -1.2,-0.15 -20.05,-10 c -0.4,-0.2 -0.70001,-0.49998 -0.9,-0.9 -0.2,-0.46667 -0.24999,-0.9 -0.15,-1.3 l 5.5,-26.45 c 0.13333,-0.46667 0.35,-0.85 0.65,-1.15 z m 27.05,-0.05 -25.7,1.6 -5.55,26.45 20.05,10 19.9,-17.85 -8.7,-20.2 z"
           id="path4171"
           inkscape:connector-curvature="0"
           style="fill:#5c4434;stroke-linecap:round;stroke-linejoin:round" />
        <path
           d="m 127.2,432.4 4,-19.05 18.35,-1.15 5.9,13.7 -3.65,3.3 -5.75,-4.6 2.1,7.95 -7.4,6.6 -2.45,-1.25 -1,-3.65 -6.25,0.1 -3.85,-1.95 z m 7.9,-9.85 c 0.46667,0.43334 1.03333,0.65 1.7,0.65 0.66667,0 1.23334,-0.21666 1.7,-0.65 0.46666,-0.46666 0.7,-1.0333 0.7,-1.7 0,-0.66665 -0.23334,-1.23333 -0.7,-1.7 -0.46666,-0.46665 -1.03333,-0.7 -1.7,-0.7 -0.66667,0 -1.23333,0.23335 -1.7,0.7 -0.46667,0.46667 -0.7,1.03335 -0.7,1.7 0,0.66666 0.23333,1.2333 0.7,1.7 z"
           id="path4173"
           inkscape:connector-curvature="0"
           style="fill:#997055;stroke-linecap:round;stroke-linejoin:round" />
        <path
           d="m 131.2,413.35 -4,19.05 3.85,1.95 6.25,-0.1 1,3.65 2.45,1.25 7.4,-6.6 -2.1,-7.95 5.75,4.6 3.65,-3.3 -5.9,-13.7 -18.35,1.15 z m -4.15,-4.7 25.7,-1.6 8.7,20.2 -19.9,17.85 -20.05,-10 5.55,-26.45 z m 9.75,14.55 c -0.66667,0 -1.23333,-0.21666 -1.7,-0.65 -0.46667,-0.46666 -0.7,-1.0333 -0.7,-1.7 0,-0.66665 0.23333,-1.23333 0.7,-1.7 0.46667,-0.46665 1.03333,-0.7 1.7,-0.7 0.66667,0 1.23334,0.23335 1.7,0.7 0.46666,0.46667 0.7,1.03335 0.7,1.7 0,0.66666 -0.23334,1.2333 -0.7,1.7 -0.46666,0.43334 -1.03333,0.65 -1.7,0.65 z"
           id="path4175"
           inkscape:connector-curvature="0"
           style="fill:#836049;stroke-linecap:round;stroke-linejoin:round" />
        <path
           d="m 483.35,226.2 c 0.46665,0.46666 -0.4667,2.23332 -2.8,5.3 l -1.25,1.6 c 0.83333,1.16668 1.43334,2.43334 1.8,3.8 l 7.45,0.65 c 5.3,0.7 7.95,1.51667 7.95,2.45 0,0.96666 -2.65,1.78333 -7.95,2.45 l -7.45,0.7 c -0.36666,1.33332 -0.96667,2.58332 -1.8,3.75 l 1.25,1.6 c 2.33333,3.06667 3.26668,4.83333 2.8,5.3 -0.5,0.5 -2.26666,-0.43333 -5.3,-2.8 l -1.6,-1.25 c -1.16664,0.86667 -2.4333,1.48334 -3.8,1.85 l -0.7,7.45 c -0.7,5.3 -1.51668,7.95 -2.45,7.95 -0.96667,0 -1.78336,-2.65 -2.45,-7.95 -0.3,-2.3 -0.51667,-4.78332 -0.65,-7.45 -1.36667,-0.36666 -2.63334,-0.96667 -3.8,-1.8 l -1.6,1.25 c -3.06668,2.33333 -4.83334,3.26667 -5.3,2.8 -0.5,-0.5 0.43333,-2.26666 2.8,-5.3 l 1.25,-1.6 c -0.83334,-1.16667 -1.43335,-2.43334 -1.8,-3.8 l -7.55,-0.7 c -5.26667,-0.66667 -7.9,-1.48334 -7.9,-2.45 0,-0.93333 2.63333,-1.75 7.9,-2.45 l 7.55,-0.65 c 0.36668,-1.4 0.9667,-2.68333 1.8,-3.85 l -1.25,-1.6 c -2.36667,-3.03334 -3.3,-4.8 -2.8,-5.3 0.46666,-0.46667 2.23332,0.46667 5.3,2.8 l 1.6,1.3 c 1.16666,-0.86667 2.43333,-1.46667 3.8,-1.8 0.13333,-2.73333 0.35,-5.24999 0.65,-7.55 0.66664,-5.26667 1.48333,-7.9 2.45,-7.9 0.93332,0 1.75,2.63333 2.45,7.9 l 0.7,7.55 c 1.36666,0.36667 2.63333,0.96667 3.8,1.8 l 1.6,-1.25 c 3.03334,-2.36667 4.8,-3.3 5.3,-2.8 z m -13.85,-9.2 -0.45,4.15 c -0.3,2.26667 -0.51667,4.73335 -0.65,7.4 l -0.45,1.2 -1.05,0.65 c -1.13334,0.26667 -2.16666,0.75001 -3.1,1.45 -0.36668,0.26667 -0.78334,0.4 -1.25,0.4 -0.5,-0.0333 -0.91667,-0.20001 -1.25,-0.5 0.3,0.40001 0.45,0.81668 0.45,1.25 l -0.35,1.25 c -0.7,0.93333 -1.2,1.98334 -1.5,3.15 l -0.7,1.05 c -0.33333,0.26667 -0.71666,0.41667 -1.15,0.45 l -7.4,0.65 -4.15,0.45 4.15,0.5 7.45,0.65 c 0.4,0.0333 0.78333,0.18334 1.15,0.45 l 0.65,1.05 c 0.3,1.13334 0.8,2.18334 1.5,3.15 0.23333,0.36667 0.35,0.76667 0.35,1.2 l -0.45,1.2 c 0.39998,-0.26667 0.81664,-0.4 1.25,-0.4 0.43334,0 0.85,0.13333 1.25,0.4 0.96666,0.66667 2.01668,1.16667 3.15,1.5 0.4,0.1 0.73335,0.31668 1,0.65 0.26667,0.33333 0.41667,0.71667 0.45,1.15 0.13333,2.59999 0.35,5.03333 0.65,7.3 l 0.45,4.2 0.5,-4.2 0.65,-7.3 c 0.0334,-0.43333 0.18334,-0.81667 0.45,-1.15 0.26667,-0.33332 0.61667,-0.55 1.05,-0.65 1.1,-0.33333 2.13333,-0.85 3.1,-1.55 0.36667,-0.26667 0.78333,-0.4 1.25,-0.4 0.43332,0 0.8333,0.15 1.2,0.45 -0.26668,-0.4 -0.4,-0.81667 -0.4,-1.25 0,-0.43334 0.13332,-0.83333 0.4,-1.2 0.66667,-0.96666 1.16667,-2 1.5,-3.1 0.10002,-0.43334 0.3167,-0.78333 0.65,-1.05 0.33335,-0.26667 0.71668,-0.41668 1.15,-0.45 l 7.3,-0.65 4.2,-0.5 -4.2,-0.45 -7.3,-0.65 -1.15,-0.45 c -0.33334,-0.26667 -0.55,-0.6 -0.65,-1 -0.33333,-1.13333 -0.83333,-2.18334 -1.5,-3.15 l -0.4,-1.25 c 0,-0.43333 0.14998,-0.83333 0.45,-1.2 -0.4,0.26667 -0.81665,0.4 -1.25,0.4 -0.43332,0 -0.8333,-0.11667 -1.2,-0.35 -0.96666,-0.7 -2.01664,-1.2 -3.15,-1.5 l -1.05,-0.65 c -0.26666,-0.36667 -0.41665,-0.75 -0.45,-1.15 L 470,221.15 469.5,217 Z m 8.45,14.6 -0.25,0.2 0.25,-0.2 z m 0,16.8 -0.2,-0.25 0.2,0.25 z m -16.85,0.05 0.25,-0.2 -0.25,0.2 z m 0.15,-16.75 0.05,0.1 -0.05,-0.1 z m 8.25,11.15 c -0.80002,0 -1.48334,-0.28333 -2.05,-0.85 -0.53334,-0.53334 -0.8,-1.20001 -0.8,-2 0,-0.8 0.26666,-1.48334 0.8,-2.05 0.56666,-0.53334 1.24998,-0.8 2.05,-0.8 0.80002,0 1.46667,0.26666 2,0.8 0.56668,0.56666 0.85,1.25 0.85,2.05 0,0.8 -0.28332,1.46667 -0.85,2 -0.53333,0.56667 -1.19998,0.85 -2,0.85 z"
           id="path4177"
           inkscape:connector-curvature="0"
           style="fill:#71ca35;stroke-linecap:round;stroke-linejoin:round" />
        <path
           d="m 469.05,221.15 0.45,-4.15 0.5,4.15 0.65,7.45 c 0.0334,0.4 0.18334,0.78333 0.45,1.15 l 1.05,0.65 c 1.13333,0.3 2.1833,0.8 3.15,1.5 0.36666,0.23333 0.76665,0.35 1.2,0.35 0.43332,0 0.8333,-0.15 1.2,-0.45 -0.26668,0.4 -0.4,0.81667 -0.4,1.25 l 0.4,1.25 c 0.66667,0.96666 1.16667,2.01667 1.5,3.15 0.10002,0.4 0.3167,0.73333 0.65,1 l 1.15,0.45 7.3,0.65 4.2,0.45 -4.2,0.5 -7.3,0.65 c -0.43332,0.0333 -0.81665,0.18334 -1.15,0.45 -0.33334,0.26667 -0.55,0.61666 -0.65,1.05 -0.33333,1.1 -0.83333,2.13334 -1.5,3.1 -0.26668,0.36667 -0.4,0.76666 -0.4,1.2 0,0.43333 0.14998,0.83333 0.45,1.2 -0.4,-0.26667 -0.81665,-0.4 -1.25,-0.4 -0.46667,0 -0.88333,0.13333 -1.25,0.4 -0.96667,0.69999 -2,1.21665 -3.1,1.55 -0.43333,0.1 -0.78333,0.31668 -1.05,0.65 -0.26666,0.33333 -0.41665,0.71667 -0.45,1.15 l -0.65,7.3 -0.5,4.2 -0.45,-4.2 c -0.3,-2.26667 -0.51667,-4.70001 -0.65,-7.3 -0.0333,-0.43333 -0.18333,-0.81667 -0.45,-1.15 -0.26668,-0.33332 -0.60002,-0.55 -1,-0.65 -1.13332,-0.33333 -2.18334,-0.83333 -3.15,-1.5 -0.4,-0.26667 -0.81666,-0.4 -1.25,-0.4 -0.43333,0 -0.83333,0.15 -1.2,0.45 l 0.4,-1.25 c 0,-0.43333 -0.11667,-0.83333 -0.35,-1.2 -0.7,-0.96666 -1.2,-2.01666 -1.5,-3.15 l -0.65,-1.05 c -0.36667,-0.26667 -0.75,-0.41668 -1.15,-0.45 l -7.45,-0.65 -4.15,-0.5 4.15,-0.45 7.4,-0.65 c 0.43334,-0.0333 0.81667,-0.18333 1.15,-0.45 l 0.7,-1.05 c 0.3,-1.16668 0.8,-2.21668 1.5,-3.15 l 0.35,-1.25 c 0,-0.43333 -0.15,-0.83333 -0.45,-1.2 0.33333,0.26667 0.75,0.41666 1.25,0.45 0.46666,0 0.88332,-0.13333 1.25,-0.4 0.93334,-0.69999 1.96666,-1.18333 3.1,-1.45 l 1.05,-0.65 0.45,-1.2 c 0.13333,-2.66667 0.35,-5.13334 0.65,-7.4 z m 8.65,10.65 0.25,-0.2 -0.2,0.25 z m 0.05,16.35 0.2,0.25 -0.25,-0.2 z m -16.4,0.1 -0.25,0.2 0.2,-0.25 z m -0.05,-16.45 -0.05,-0.1 0.05,0.05 z m 6.15,10.2 c 0.56666,0.56667 1.24998,0.85 2.05,0.85 0.80002,0 1.46667,-0.28333 2,-0.85 0.56668,-0.53334 0.85,-1.20001 0.85,-2 0,-0.8 -0.28332,-1.48334 -0.85,-2.05 -0.53333,-0.53334 -1.19998,-0.8 -2,-0.8 -0.80002,0 -1.48334,0.26666 -2.05,0.8 -0.53334,0.56666 -0.8,1.25 -0.8,2.05 0,0.8 0.26666,1.46667 0.8,2 z"
           id="path4179"
           inkscape:connector-curvature="0"
           style="fill:#ffffff;stroke-linecap:round;stroke-linejoin:round" />
        <path
           d="m 558.55,242.45 -7.45,0.7 c -0.36666,1.33332 -0.96664,2.58332 -1.8,3.75 l 1.25,1.6 c 2.3333,3.06667 3.26665,4.83333 2.8,5.3 -0.5,0.5 -2.2667,-0.43333 -5.3,-2.8 l -1.6,-1.25 c -1.1667,0.86667 -2.43334,1.48334 -3.8,1.85 l -0.7,7.45 c -0.7,5.3 -1.51665,7.95 -2.45,7.95 -0.9667,0 -1.7833,-2.65 -2.45,-7.95 -0.3,-2.3 -0.5167,-4.78332 -0.65,-7.45 -1.3667,-0.36666 -2.63334,-0.96667 -3.8,-1.8 l -1.6,1.25 c -3.06665,2.33333 -4.8333,3.26667 -5.3,2.8 -0.5,-0.5 0.43336,-2.26666 2.8,-5.3 l 1.25,-1.6 c -0.8333,-1.16667 -1.4333,-2.43334 -1.8,-3.8 l -7.55,-0.7 c -5.26664,-0.66667 -7.9,-1.48334 -7.9,-2.45 0,-0.93333 2.63336,-1.75 7.9,-2.45 l 7.55,-0.65 c 0.36665,-1.4 0.9666,-2.68333 1.8,-3.85 l -1.25,-1.6 c -2.36664,-3.03334 -3.3,-4.8 -2.8,-5.3 0.4667,-0.46667 2.23335,0.46667 5.3,2.8 l 1.6,1.3 c 1.16666,-0.86667 2.4333,-1.46667 3.8,-1.8 0.1333,-2.73333 0.35,-5.24999 0.65,-7.55 0.6667,-5.26667 1.4833,-7.9 2.45,-7.9 0.93335,0 1.75,2.63333 2.45,7.9 l 0.7,7.55 c 1.36666,0.36667 2.6333,0.96667 3.8,1.8 l 1.6,-1.25 c 3.0333,-2.36667 4.8,-3.3 5.3,-2.8 0.46665,0.46666 -0.4667,2.23332 -2.8,5.3 l -1.25,1.6 c 0.8333,1.16668 1.4333,2.43334 1.8,3.8 l 7.45,0.65 c 5.3,0.7 7.95,1.51667 7.95,2.45 0,0.96666 -2.65,1.78333 -7.95,2.45 z m -0.25,-1.95 4.2,-0.5 -4.2,-0.45 -7.3,-0.65 c -0.43335,-0.0333 -0.8167,-0.18333 -1.15,-0.45 -0.33334,-0.26667 -0.55,-0.6 -0.65,-1 -0.3333,-1.13333 -0.8333,-2.18334 -1.5,-3.15 l -0.4,-1.25 c 0,-0.43333 0.15,-0.83333 0.45,-1.2 l -1.25,0.4 c -0.43335,0 -0.8334,-0.11667 -1.2,-0.35 -0.9667,-0.7 -2.0167,-1.2 -3.15,-1.5 l -1.05,-0.65 c -0.2667,-0.36667 -0.41665,-0.75 -0.45,-1.15 l -0.65,-7.45 -0.5,-4.15 -0.45,4.15 c -0.3,2.26667 -0.5167,4.73335 -0.65,7.4 l -0.45,1.2 c -0.3,0.33333 -0.64995,0.54999 -1.05,0.65 -1.13334,0.26667 -2.16666,0.75001 -3.1,1.45 -0.36665,0.26667 -0.78334,0.4 -1.25,0.4 -0.5,-0.0333 -0.9167,-0.20001 -1.25,-0.5 0.3,0.40001 0.45,0.81668 0.45,1.25 l -0.35,1.25 c -0.7,0.93333 -1.2,1.98334 -1.5,3.15 l -0.7,1.05 -1.15,0.45 -7.4,0.65 -4.15,0.45 4.15,0.5 7.45,0.65 c 0.4,0.0333 0.78336,0.18334 1.15,0.45 l 0.65,1.05 c 0.3,1.13334 0.8,2.18334 1.5,3.15 0.23336,0.36667 0.35,0.76667 0.35,1.2 l -0.45,1.2 c 0.4,-0.26667 0.8167,-0.4 1.25,-0.4 0.43334,0 0.85,0.13333 1.25,0.4 0.96666,0.66667 2.01665,1.16667 3.15,1.5 0.4,0.1 0.7333,0.31668 1,0.65 0.2667,0.33333 0.4167,0.71667 0.45,1.15 0.1333,2.59999 0.35,5.03333 0.65,7.3 l 0.45,4.2 0.5,-4.2 0.65,-7.3 c 0.0334,-0.43333 0.1833,-0.81667 0.45,-1.15 0.26664,-0.33332 0.6167,-0.55 1.05,-0.65 1.1,-0.33333 2.1333,-0.85 3.1,-1.55 0.36664,-0.26667 0.7833,-0.4 1.25,-0.4 0.43335,0 0.8334,0.15 1.2,0.45 -0.26665,-0.4 -0.4,-0.81667 -0.4,-1.25 0,-0.43334 0.13335,-0.83333 0.4,-1.2 0.6667,-0.96666 1.1667,-2 1.5,-3.1 0.1,-0.43334 0.31666,-0.78333 0.65,-1.05 0.3333,-0.26667 0.71665,-0.41668 1.15,-0.45 l 7.3,-0.65 z m -10.35,7.9 -0.2,-0.25 0.2,0.25 z m -16.85,0.05 0.25,-0.2 -0.25,0.2 z m 0.15,-16.75 0.05,0.1 -0.05,-0.1 z m 16.7,-0.1 -0.25,0.2 0.25,-0.2 z m -10.5,10.4 c -0.5333,-0.53334 -0.8,-1.20001 -0.8,-2 0,-0.8 0.2667,-1.48334 0.8,-2.05 0.56666,-0.53334 1.25,-0.8 2.05,-0.8 0.8,0 1.4667,0.26666 2,0.8 0.56665,0.56666 0.85,1.25 0.85,2.05 0,0.8 -0.28335,1.46667 -0.85,2 -0.5333,0.56667 -1.2,0.85 -2,0.85 -0.8,0 -1.48334,-0.28333 -2.05,-0.85 z"
           id="path4181"
           inkscape:connector-curvature="0"
           style="fill:#ce3131;stroke-linecap:round;stroke-linejoin:round" />
        <path
           d="m 562.5,240 -4.2,0.5 -7.3,0.65 c -0.43335,0.0333 -0.8167,0.18334 -1.15,0.45 -0.33334,0.26667 -0.55,0.61666 -0.65,1.05 -0.3333,1.1 -0.8333,2.13334 -1.5,3.1 -0.26665,0.36667 -0.4,0.76666 -0.4,1.2 0,0.43333 0.15,0.83333 0.45,1.2 -0.39996,-0.26667 -0.81665,-0.4 -1.25,-0.4 -0.4667,0 -0.88336,0.13333 -1.25,0.4 -0.9667,0.69999 -2,1.21665 -3.1,1.55 -0.4333,0.1 -0.78336,0.31668 -1.05,0.65 -0.2667,0.33333 -0.41665,0.71667 -0.45,1.15 l -0.65,7.3 -0.5,4.2 -0.45,-4.2 c -0.3,-2.26667 -0.5167,-4.70001 -0.65,-7.3 -0.0334,-0.43333 -0.1834,-0.81667 -0.45,-1.15 -0.26665,-0.33332 -0.59996,-0.55 -1,-0.65 -1.13335,-0.33333 -2.18334,-0.83333 -3.15,-1.5 -0.4,-0.26667 -0.81666,-0.4 -1.25,-0.4 -0.4333,0 -0.8333,0.15 -1.2,0.45 l 0.4,-1.25 c 0,-0.43333 -0.11664,-0.83333 -0.35,-1.2 -0.7,-0.96666 -1.2,-2.01666 -1.5,-3.15 l -0.65,-1.05 c -0.36664,-0.26667 -0.75,-0.41668 -1.15,-0.45 l -7.45,-0.65 -4.15,-0.5 4.15,-0.45 7.4,-0.65 1.15,-0.45 0.7,-1.05 c 0.3,-1.16668 0.8,-2.21668 1.5,-3.15 l 0.35,-1.25 c 0,-0.43333 -0.15,-0.83333 -0.45,-1.2 0.3333,0.26667 0.75,0.41666 1.25,0.45 0.46666,0 0.88335,-0.13333 1.25,-0.4 0.93334,-0.69999 1.96666,-1.18333 3.1,-1.45 0.4,-0.1 0.74996,-0.31666 1.05,-0.65 l 0.45,-1.2 c 0.1333,-2.66667 0.35,-5.13334 0.65,-7.4 l 0.45,-4.15 0.5,4.15 0.65,7.45 c 0.0334,0.4 0.1833,0.78333 0.45,1.15 l 1.05,0.65 c 1.1333,0.3 2.1833,0.8 3.15,1.5 0.3666,0.23333 0.76665,0.35 1.2,0.35 l 1.2,-0.45 c -0.26665,0.4 -0.4,0.81667 -0.4,1.25 l 0.4,1.25 c 0.6667,0.96666 1.1667,2.01667 1.5,3.15 0.1,0.4 0.31666,0.73333 0.65,1 0.3333,0.26667 0.71665,0.41667 1.15,0.45 l 7.3,0.65 4.2,0.45 z m -14.75,8.15 0.2,0.25 -0.25,-0.2 z m -16.4,0.1 -0.25,0.2 0.2,-0.25 z m -0.05,-16.45 -0.05,-0.1 0.05,0.05 z m 16.4,0 0.25,-0.2 -0.2,0.25 z m -11.05,8.2 c 0,0.8 0.2667,1.46667 0.8,2 0.56666,0.56667 1.25,0.85 2.05,0.85 0.8,0 1.4667,-0.28333 2,-0.85 0.56665,-0.53334 0.85,-1.20001 0.85,-2 0,-0.8 -0.28335,-1.48334 -0.85,-2.05 -0.5333,-0.53334 -1.2,-0.8 -2,-0.8 -0.8,0 -1.48334,0.26666 -2.05,0.8 -0.5333,0.56666 -0.8,1.25 -0.8,2.05 z"
           id="path4183"
           inkscape:connector-curvature="0"
           style="fill:#ffffff;stroke-linecap:round;stroke-linejoin:round" />
        <path
           d="m 472.2,284.75 c 0.86668,0.83334 1.3,1.86667 1.3,3.1 l 0,24.3 c 0,1.2 -0.41666,2.2 -1.25,3 l -0.15,0.15 -1.3,0.85 -1.8,0.35 -1.85,-0.35 c -0.5,-0.2 -0.96668,-0.49998 -1.4,-0.9 -0.83334,-0.83334 -1.25,-1.86667 -1.25,-3.1 l 0,-24.3 c 0,-1.2 0.4,-2.21667 1.2,-3.05 l 0.1,-0.1 c 0.86666,-0.8 1.91667,-1.2 3.15,-1.2 1.3,0 2.38334,0.41666 3.25,1.25 z m -3.2,31.75 -0.05,0 z m -0.05,-33 0.05,0 z m -2.4,4.35 0,24.3 c 0,0.66665 0.21666,1.21664 0.65,1.65 0.5,0.46666 1.08336,0.7 1.75,0.7 0.73332,0 1.31666,-0.23334 1.75,-0.7 0.5,-0.43333 0.75,-0.98332 0.75,-1.65 l 0,-24.3 c 0,-0.66665 -0.25,-1.23333 -0.75,-1.7 -0.43334,-0.43333 -1.00002,-0.65 -1.7,-0.65 -0.69998,0 -1.3,0.21667 -1.8,0.65 -0.43334,0.46667 -0.65,1.03335 -0.65,1.7 z m 2.4,26.65 0.05,0 z m 0.05,-29 -0.05,0 z"
           id="path4185"
           inkscape:connector-curvature="0"
           style="fill:#71ca35;stroke-linecap:round;stroke-linejoin:round" />
        <path
           d="m 466.55,312.15 0,-24.3 c 0,-0.66665 0.21666,-1.23333 0.65,-1.7 0.5,-0.43333 1.08336,-0.65 1.75,-0.65 0.73332,0 1.31666,0.21667 1.75,0.65 0.5,0.46667 0.75,1.03335 0.75,1.7 l 0,24.3 c 0,0.66665 -0.25,1.21664 -0.75,1.65 -0.43334,0.46666 -1.00002,0.7 -1.7,0.7 -0.69998,0 -1.3,-0.23334 -1.8,-0.7 -0.43334,-0.43333 -0.65,-0.98332 -0.65,-1.65 z m 2.45,2.35 -0.05,0 z m -0.05,-29 0.05,0 z"
           id="path4187"
           style="fill:url(#linearGradient4287);stroke-linecap:round;stroke-linejoin:round"
           inkscape:connector-curvature="0" />
        <path
           d="m 535.8,284.75 1.4,-0.9 1.8,-0.35 1.85,0.35 1.3,0.85 0.15,0.15 c 0.8,0.8 1.2,1.8 1.2,3 l 0,24.3 c 0,1.23333 -0.4167,2.26666 -1.25,3.1 -0.86664,0.83334 -1.9333,1.25 -3.2,1.25 -1.2667,0 -2.3333,-0.4 -3.2,-1.2 l -0.1,-0.1 c -0.8333,-0.83333 -1.25,-1.85 -1.25,-3.05 l 0,-24.3 c 0,-1.23333 0.43335,-2.26666 1.3,-3.1 z m 3.25,31.75 -0.05,0 z m -0.05,-33 0.05,0 z m 0.05,2 -0.05,0 c -0.7,0 -1.2833,0.23334 -1.75,0.7 -0.4667,0.43333 -0.7,0.98332 -0.7,1.65 l 0,24.3 c 0,0.66665 0.2333,1.23333 0.7,1.7 0.4667,0.43333 1.05,0.65 1.75,0.65 0.7,0 1.2833,-0.21667 1.75,-0.65 0.4667,-0.46667 0.7,-1.03335 0.7,-1.7 l 0,-24.3 c 0,-0.66665 -0.2333,-1.21664 -0.7,-1.65 -0.4667,-0.46666 -1.0333,-0.7 -1.7,-0.7 z m -0.05,29 0.05,0 z"
           id="path4189"
           inkscape:connector-curvature="0"
           style="fill:#ce3131;stroke-linecap:round;stroke-linejoin:round" />
        <path
           d="m 539,285.5 0.05,0 c 0.6667,0 1.2333,0.23334 1.7,0.7 0.4667,0.43333 0.7,0.98332 0.7,1.65 l 0,24.3 c 0,0.66665 -0.2333,1.23333 -0.7,1.7 -0.4667,0.43333 -1.0333,0.65 -1.7,0.65 -0.73335,0 -1.3333,-0.21667 -1.8,-0.65 -0.4667,-0.46667 -0.7,-1.03335 -0.7,-1.7 l 0,-24.3 c 0,-0.66665 0.2333,-1.21664 0.7,-1.65 0.4667,-0.46666 1.05,-0.7 1.75,-0.7 z m 0.05,29 -0.05,0 z"
           id="path4191"
           style="fill:url(#linearGradient4289);stroke-linecap:round;stroke-linejoin:round"
           inkscape:connector-curvature="0" />
        <path
           d="m 415.2,396.1 3.4,-23.85 c 0.0667,-0.53333 0.28336,-0.96664 0.65,-1.3 0.36667,-0.33333 0.8,-0.5 1.3,-0.5 l 12.95,0 c 0.5,0 0.93332,0.16667 1.3,0.5 0.36666,0.33336 0.6,0.76667 0.7,1.3 l 3.4,23.85 -1.85,1.25 -3.55,-24.85 -12.95,0 -3.55,24.85 -1.8,-1.25 z m 25.4,39.1 -5.8,9.3 -0.7,0.7 -1,0.25 -1.75,0 0,-2 1.75,0 6.25,-10.15 1.25,1.9 z m -17.9,10.25 -1.75,0 -0.95,-0.25 -0.75,-0.7 -5.8,-9.3 1.2,-1.9 6.3,10.15 1.75,0 0,2 z"
           id="path4193"
           inkscape:connector-curvature="0"
           style="fill:#cccccc;stroke-linecap:round;stroke-linejoin:round" />
        <path
           d="m 438.9,396.1 24.1,13.7 4.75,-2.25 1.45,1.5 -6.3,3 -21.7,-12.3 -4.15,-2.4 1.85,-1.25 z m 29.35,32.5 -4.5,2.1 -0.45,0.2 -2.5,0.45 0,-2.05 2.1,-0.4 6.3,-3.05 -0.95,2.75 z m -25.1,6.1 -2.55,0.5 -1.25,-1.9 3.8,-0.7 0,2.1 z m -29.7,0.5 -2.55,-0.5 0,-2.1 3.75,0.7 -1.2,1.9 z m -20.3,-3.85 -2.4,-0.45 -0.5,-0.2 -4.45,-2.1 -1,-2.75 6.3,3.05 2.05,0.4 0,2.05 z m -6.9,-23.8 4.75,2.25 24.2,-13.7 1.8,1.25 -4.15,2.4 -21.75,12.3 -6.3,-3 1.45,-1.5 z"
           id="path4195"
           inkscape:connector-curvature="0"
           style="fill:#9ebbc7;stroke-linecap:round;stroke-linejoin:round" />
        <path
           d="m 467.75,407.55 2.7,-4.85 c 0.16667,-0.33333 0.41667,-0.58333 0.75,-0.75 l 1,-0.3 2.3,0 c 0.36667,0 0.71667,0.1 1.05,0.3 l 0.75,0.85 0.2,1.1 -3.05,27.15 -0.55,1.15 c -0.3,0.3 -0.66666,0.49998 -1.1,0.6 l -1.3,-0.2 c -0.4,-0.23333 -0.68332,-0.55 -0.85,-0.95 l -1.4,-3.05 0.95,-2.75 2.25,4.95 3.05,-27.15 -2.3,0 -3,5.4 -1.45,-1.5 z m -36.4,37.9 -8.65,0 0,-2 8.65,0 0,2 z m -45.55,-16.85 -1.4,3.05 -0.9,0.95 -1.25,0.2 c -0.46667,-0.10002 -0.85,-0.3 -1.15,-0.6 -0.3,-0.33333 -0.46667,-0.71666 -0.5,-1.15 l -3.05,-27.15 c -0.0667,-0.4 -0.0166,-0.76667 0.15,-1.1 0.16667,-0.36668 0.41667,-0.65 0.75,-0.85 0.33336,-0.2 0.68336,-0.3 1.05,-0.3 l 2.25,0 c 0.36667,0 0.7,0.1 1,0.3 l 0.75,0.7 2.75,4.9 -1.45,1.5 -3.05,-5.4 -2.25,0 3.05,27.15 2.25,-4.95 1,2.75 z"
           id="path4197"
           inkscape:connector-curvature="0"
           style="fill:#802b2b;stroke-linecap:round;stroke-linejoin:round" />
        <path
           d="m 460.8,431.35 -17.65,3.35 0,-2.1 4.4,-0.85 4.45,-0.8 4.4,-0.8 4.4,-0.85 0,2.05 z m -49.9,3.35 -17.75,-3.35 0,-2.05 4.45,0.85 4.45,0.8 4.4,0.8 4.45,0.85 0,2.1 z"
           id="path4199"
           inkscape:connector-curvature="0"
           style="fill:#caa202;stroke-linecap:round;stroke-linejoin:round" />
        <path
           d="m 417,397.35 3.55,-24.85 12.95,0 3.55,24.85 2.3,16.1 0,19.85 -6.25,10.15 -1.75,0 5.15,-8.5 0,-21.5 -3.9,-37.45 -11.2,0 -3.9,37.45 0,21.5 5.2,8.5 -1.75,0 -6.3,-10.15 0,-19.85 2.35,-16.1 z"
           id="path4201"
           inkscape:connector-curvature="0"
           style="fill:#f2f2f2;stroke-linecap:round;stroke-linejoin:round" />
        <path
           d="m 412.85,399.75 4.15,-2.4 -2.35,16.1 0,19.85 -3.75,-0.7 0,-5.35 0,-1 0,-12.8 1.95,-13.7 z m 26.5,33.55 0,-19.85 -2.3,-16.1 4.15,2.4 1.95,13.7 0,12.8 0,1 0,5.35 -3.8,0.7 z"
           id="path4203"
           inkscape:connector-curvature="0"
           style="fill:#bdd6db;stroke-linecap:round;stroke-linejoin:round" />
        <path
           d="m 412.85,399.75 -1.95,13.7 0,12.8 -17.75,-3.25 0,0.95 0,5.35 -2.05,-0.4 0,-16.85 21.75,-12.3 z m 28.35,0 21.7,12.3 0,16.85 -2.1,0.4 0,-5.35 0,-0.95 -17.65,3.25 0,-12.8 -1.95,-13.7 z"
           id="path4205"
           inkscape:connector-curvature="0"
           style="fill:#d3e1e7;stroke-linecap:round;stroke-linejoin:round" />
        <path
           d="m 410.9,426.25 0,1 -4.45,-0.85 -4.4,-0.8 -4.45,-0.85 -4.45,-0.8 0,-0.95 17.75,3.25 z m -19.8,-14.2 0,16.85 -6.3,-3.05 0,-16.8 6.3,3 z m 71.8,0 6.3,-3 0,16.8 -6.3,3.05 0,-16.85 z m -10.9,13.55 -4.45,0.8 -4.4,0.85 0,-1 17.65,-3.25 0,0.95 -4.4,0.8 -4.4,0.85 z"
           id="path4207"
           inkscape:connector-curvature="0"
           style="fill:#b9ced7;stroke-linecap:round;stroke-linejoin:round" />
        <path
           d="m 410.9,427.25 0,5.35 -4.45,-0.85 0,-5.35 4.45,0.85 z m -13.3,-2.5 4.45,0.85 0,5.35 -4.45,-0.8 0,-5.4 z m 49.95,1.65 0,5.35 -4.4,0.85 0,-5.35 4.4,-0.85 z m 4.45,4.55 0,-5.35 4.4,-0.85 0,5.4 -4.4,0.8 z"
           id="path4209"
           inkscape:connector-curvature="0"
           style="fill:#ffcc00;stroke-linecap:round;stroke-linejoin:round" />
        <path
           d="m 434.4,405.35 -0.15,-1.4 -14.45,0 -0.15,1.4 -1,8.1 16.7,0 -0.95,-8.1 z m -49.6,3.7 0,16.8 -2.25,4.95 -3.05,-27.15 2.25,0 3.05,5.4 z m 37.9,34.4 -5.2,-8.5 0,-21.5 3.9,-37.45 11.2,0 3.9,37.45 0,21.5 -5.15,8.5 -8.65,0 z m 48.75,-12.65 -2.25,-4.95 0,-16.8 3,-5.4 2.3,0 -3.05,27.15 z"
           id="path4211"
           inkscape:connector-curvature="0"
           style="fill:#ac3939;stroke-linecap:round;stroke-linejoin:round" />
        <path
           d="m 434.25,403.95 0.15,1.4 -14.75,0 0.15,-1.4 14.45,0 z"
           id="path4213"
           inkscape:connector-curvature="0"
           style="fill:#c44d4d;stroke-linecap:round;stroke-linejoin:round" />
        <path
           d="m 419.65,405.35 14.75,0 0.95,8.1 -16.7,0 1,-8.1 z"
           id="path4215"
           inkscape:connector-curvature="0"
           style="fill:#4a3c55;stroke-linecap:round;stroke-linejoin:round" />
        <path
           d="m 393.15,429.3 0,-5.35 4.45,0.8 0,5.4 -4.45,-0.85 z m 8.9,-3.7 4.4,0.8 0,5.35 -4.4,-0.8 0,-5.35 z m 45.5,6.15 0,-5.35 4.45,-0.8 0,5.35 -4.45,0.8 z m 8.85,-1.6 0,-5.4 4.4,-0.8 0,5.35 -4.4,0.85 z"
           id="path4217"
           inkscape:connector-curvature="0"
           style="fill:#ecbd02;stroke-linecap:round;stroke-linejoin:round" />
      </g>
      <g
         transform="matrix(1.0033417,0,0,1.0067139,530.35,407.95)"
         id="g4219">
        <g
           id="g4221">
          <path
             d="m -11.9,-11.75 2.95,-23.7 0.55,-1.25 c 0.333333,-0.333333 0.7166666,-0.5 1.15,-0.5 l 14.55,0 c 0.433333,0 0.799999,0.166667 1.1,0.5 0.333333,0.33333 0.533332,0.75 0.6,1.25 l 3,23.7 -0.1,0.1 -1.55,1.15 -3.05,-24.7 -11.3,0 -3.1,24.7 -1.55,-1.25 -0.15,0.1 -0.1,-0.1 -0.15,0.1 -0.1,-0.1 -0.15,0.1 -0.1,-0.1 -0.15,0.1 -0.1,-0.1 -0.15,0.1 -0.1,-0.1 -0.25,0.2 -0.25,-0.2 -0.15,0.1 -0.1,-0.1 -0.15,0.1 -0.1,-0.1 -0.15,0.1 -0.1,-0.1 -0.15,0.1 -0.1,-0.1 -0.15,0.1 -0.1,-0.1 -0.15,0.1 -0.1,-0.1 z M 8.4,36.3 7.8,37 l -0.85,0.25 -1.55,0 0,-2 1.55,0 5.4,-10.05 1.1,1.8 -5.05,9.3 z m 5.05,-9.3 0,0.05 z m -15.6,10.25 -4.75,0 -0.85,-0.25 -0.65,-0.7 -5.05,-9.25 0.25,0 0.25,0 0.25,0 0.25,0 0.25,0 0.25,0 0.05,-0.1 0.45,0.1 0.25,0 0.25,0 0.25,0 0.25,0 0.25,0 1.05,-1.85 5.5,10.05 1.5,0 0,2 z M -13.45,27.05 -13.4,27 Z m 0.25,0 0.05,-0.05 z m 2.75,0 0.05,-0.05 z m -0.25,0 0.05,-0.05 z m -0.25,0 0.05,-0.05 z m -0.25,0 0.05,-0.05 z m -0.25,0 0.05,-0.05 z m -0.75,0 0.05,-0.05 z m -0.25,0 0.05,-0.05 z m -0.25,0 0.05,-0.05 z m -0.25,0 0.05,-0.05 z"
             id="path4223"
             inkscape:connector-curvature="0"
             style="fill:#cccccc;stroke-linecap:round;stroke-linejoin:round" />
          <path
             d="m 12,-11.75 19.45,12.65 2.4,-1.3 0.1,0.1 0.15,-0.1 0.1,0.1 0.15,-0.1 0.1,0.1 0.15,-0.1 0.1,0.1 0.15,-0.1 0.1,0.1 0.15,-0.1 0.1,0.1 0.15,-0.1 0.15,0.2 0.35,-0.2 0.1,0.1 0.15,-0.1 0.1,0.1 0.15,-0.1 0.1,0.1 0.15,-0.1 0.1,0.1 0.15,-0.1 0.1,0.1 0.15,-0.1 1.3,1.5 -5.5,3 -18.9,-12.25 -3.65,-2.35 1.55,-1.15 0.1,-0.1 z m 22.95,33.7 -1.3,0.65 -0.4,0.2 -2.2,0.45 0,-2.05 1.85,-0.4 5.5,-3 -0.85,2.7 -2.6,1.45 z m -19.25,2.55 0,2.05 -2.25,0.5 -1.1,-1.85 3.35,-0.7 z m -2.25,2.55 0,-0.05 z m -29.1,-0.5 0,-0.05 0.25,0.05 0.25,0 0.25,0 0.25,0 0.25,0 0.25,0 0,-0.1 0.5,0.1 0.25,0 0.25,0 0.25,0 0.25,0 0.25,0 0,-2.05 3.25,0.7 -1.05,1.85 -0.2,-0.05 -0.25,0 -0.25,0 -0.25,0 -0.25,0 -0.5,-0.05 -0.05,0.1 -0.2,-0.05 -0.25,0 -0.25,0 -0.25,0 -0.25,0 -0.25,0 -2.25,-0.45 z m 2.25,0.45 -0.05,0.05 z m -2,-0.45 0,-0.05 z m 2.25,0.45 -0.05,0.05 z m -2,-0.45 0,-0.05 z m 2.25,0.45 -0.05,0.05 z m -2,-0.45 0,-0.05 z m 2.25,0.45 -0.05,0.05 z m -2,-0.45 0,-0.05 z m 2.25,0.45 -0.05,0.05 z m -2,-0.45 0,-0.05 z m 2.25,0.45 -0.05,0.05 z m -1.5,-0.45 0,-0.05 z m 2.25,0.45 -0.05,0.05 z m -2,-0.45 0,-0.05 z m 2.25,0.45 -0.05,0.05 z m -2,-0.45 0,-0.05 z m 2.25,0.45 -0.05,0.05 z m -2,-0.45 0,-0.05 z m 2.25,0.45 -0.05,0.05 z m -2,-0.45 0,-0.05 z m 2.25,0.45 -0.05,0.05 z m -22.75,-4.2 -0.45,-0.2 -1.2,-0.65 0.55,-1.45 -0.85,-2.7 5.5,3 1.75,0.4 0,2.05 -0.25,-0.05 -0.25,0 -0.25,0 -0.25,0 -0.25,0 -0.5,-0.05 0,0.1 -0.25,-0.05 -0.25,0 -0.25,0 -0.25,0 -0.25,0 -0.25,0 -2.05,-0.4 z m 2.05,0.4 0,0.05 z m 0.25,0 0,0.05 z m 0.25,0 0,0.05 z m 2.5,0 0,0.05 z m -0.25,0 0,0.05 z m -0.25,0 0,0.05 z m -0.25,0 0,0.05 z m -0.25,0 0,0.05 z m -0.75,0 0,0.05 z m -0.25,0 0,0.05 z m -0.25,0 0,0.05 z m -3.5,-23.6 2.35,1.3 19.6,-12.65 0.1,0.1 0.15,-0.1 0.1,0.1 0.15,-0.1 0.1,0.1 0.15,-0.1 0.1,0.1 0.15,-0.1 0.1,0.1 0.15,-0.1 0.1,0.1 0.15,-0.1 0.25,0.2 0.25,-0.2 0.1,0.1 0.15,-0.1 0.1,0.1 0.15,-0.1 0.1,0.1 0.15,-0.1 0.1,0.1 0.15,-0.1 0.1,0.1 0.15,-0.1 1.55,1.25 -3.6,2.35 -18.9,12.25 -5.5,-3 1.25,-1.5 z"
             id="path4225"
             inkscape:connector-curvature="0"
             style="fill:#9ebbc7;stroke-linecap:round;stroke-linejoin:round" />
          <path
             d="m 33.85,-0.4 2.35,-4.8 0.65,-0.75 c 0.266665,-0.2 0.566664,-0.3 0.9,-0.3 l 5.25,0 0.9,0.3 0.65,0.85 0.2,1.1 -2.65,26.95 -0.5,1.15 c -0.266668,0.3 -0.583334,0.5 -0.95,0.6 l -0.4,0.05 -0.25,0 -0.25,0 -0.25,0 -0.25,0 -0.4,-0.05 -0.35,0.05 -0.25,0 -0.25,0 -0.25,0 -0.25,0 -0.25,0 -1,-0.25 -0.75,-0.95 -0.55,-1.6 2.6,-1.45 0.85,-2.7 1.95,4.9 2.65,-26.95 -2,0 -2.6,5.35 -1.3,-1.5 -0.15,0.1 -0.1,-0.1 -0.15,0.1 -0.1,-0.1 -0.15,0.1 -0.1,-0.1 -0.15,0.1 -0.1,-0.1 -0.15,0.1 -0.1,-0.1 -0.35,0.2 -0.15,-0.2 -0.15,0.1 -0.1,-0.1 -0.15,0.1 -0.1,-0.1 -0.15,0.1 -0.1,-0.1 -0.15,0.1 -0.1,-0.1 -0.15,0.1 -0.1,-0.1 -0.15,0.1 -0.1,-0.1 z M 5.4,37.25 l -7.55,0 0,-2 7.55,0 0,2 z m -40.2,-15.3 -0.65,1.6 -0.8,0.95 -0.9,0.25 -0.25,0 -0.25,0 -0.25,0 -0.3,0 -0.35,-0.05 -0.35,0.05 -0.25,0 -0.25,0 -0.25,0 -0.25,0 -0.25,0 -0.45,-0.05 c -0.4,-0.1 -0.733332,-0.3 -1,-0.6 L -42,22.95 -44.65,-4 l 0.1,-1.1 0.65,-0.85 0.95,-0.3 5.2,0 0.85,0.3 0.65,0.7 2.4,4.85 -1.25,1.5 -2.65,-5.35 -1.95,0 2.65,26.95 1.95,-4.9 0.85,2.7 -0.55,1.45 z"
             id="path4227"
             inkscape:connector-curvature="0"
             style="fill:#802b2b;stroke-linecap:round;stroke-linejoin:round" />
          <path
             d="m 31.05,23.25 -15.35,3.3 0,-2.05 3.8,-0.85 3.9,-0.8 3.8,-0.8 3.85,-0.85 0,2.05 z m -62.15,0 0,-0.05 0.25,0.05 0.25,0 0.25,0 0.25,0 0.25,0 0.25,0 0,-0.1 0.5,0.1 0.25,0 0.25,0 0.25,0 0.25,0 0.25,0 0,-2.05 3.9,0.85 3.85,0.8 3.8,0.8 3.9,0.85 0,2.05 -0.25,-0.05 -0.25,0 -0.25,0 -0.25,0 -0.25,0 -0.5,-0.05 0,0.1 -0.25,-0.05 -0.25,0 -0.25,0 -0.25,0 -0.25,0 -0.25,0 -15.45,-3.25 z m 15.45,3.25 0,0.05 z m -15.2,-3.25 0,-0.05 z m 15.45,3.25 0,0.05 z m -15.2,-3.25 0,-0.05 z m 15.45,3.25 0,0.05 z m -15.2,-3.25 0,-0.05 z m 15.45,3.25 0,0.05 z m -15.2,-3.25 0,-0.05 z m 15.45,3.25 0,0.05 z m -15.2,-3.25 0,-0.05 z m 15.45,3.25 0,0.05 z m -14.7,-3.25 0,-0.05 z m 15.45,3.25 0,0.05 z m -15.2,-3.25 0,-0.05 z m 15.45,3.25 0,0.05 z m -15.2,-3.25 0,-0.05 z m 15.45,3.25 0,0.05 z m -15.2,-3.25 0,-0.05 z m 15.45,3.25 0,0.05 z m -15.2,-3.25 0,-0.05 z m 15.45,3.25 0,0.05 z"
             id="path4229"
             inkscape:connector-curvature="0"
             style="fill:#caa202;stroke-linecap:round;stroke-linejoin:round" />
          <path
             d="m -7.1,-10.5 3.1,-24.7 11.3,0 3.05,24.7 2,15.95 0,19.75 -5.4,10.05 -1.55,0 4.5,-8.45 0,-21.35 -3.4,-37.15 -9.75,0 -3.4,37.15 0,21.35 4.5,8.45 -1.5,0 -5.5,-10.05 0,-19.75 2.05,-15.95 z"
             id="path4231"
             inkscape:connector-curvature="0"
             style="fill:#f2f2f2;stroke-linecap:round;stroke-linejoin:round" />
          <path
             d="m -2.15,35.25 -4.5,-8.45 0,-21.35 3.4,-37.15 9.75,0 3.4,37.15 0,21.35 -4.5,8.45 -7.55,0 z m 10.2,-37.8 -0.1,-1.4 -12.6,0 -0.15,1.4 -0.85,8 14.55,0 -0.85,-8 z m -45.8,-1.7 2.65,5.35 0,16.7 -1.95,4.9 -2.65,-26.95 1.95,0 z m 78.1,26.95 -1.95,-4.9 0,-16.7 2.6,-5.35 2,0 -2.65,26.95 z"
             id="path4233"
             inkscape:connector-curvature="0"
             style="fill:#ac3939;stroke-linecap:round;stroke-linejoin:round" />
          <path
             d="m 12.35,25.2 0,-19.75 -2,-15.95 3.65,2.35 1.7,13.6 0,12.75 0,0.95 0,5.35 -3.35,0.7 z m -24.75,-6.05 0,-0.95 0,-12.75 1.7,-13.6 3.6,-2.35 -2.05,15.95 0,19.75 -3.25,-0.7 0,-5.35 z"
             id="path4235"
             inkscape:connector-curvature="0"
             style="fill:#bdd6db;stroke-linecap:round;stroke-linejoin:round" />
          <path
             d="m 14,-8.15 18.9,12.25 0,16.7 -1.85,0.4 0,-5.3 0,-0.95 L 15.7,18.2 15.7,5.45 14,-8.15 Z m -41.85,24.05 0,5.3 -1.75,-0.4 0,-16.7 18.9,-12.25 -1.7,13.6 0,12.75 -15.45,-3.25 0,0.95 z"
             id="path4237"
             inkscape:connector-curvature="0"
             style="fill:#d3e1e7;stroke-linecap:round;stroke-linejoin:round" />
          <path
             d="m 32.9,4.1 5.5,-3 0,16.7 -5.5,3 0,-16.7 z m -56.85,12.6 -3.9,-0.8 0,-0.95 15.45,3.25 0,0.95 -3.9,-0.8 -3.8,-0.8 -3.85,-0.85 z m -5.65,-12.6 0,16.7 -5.5,-3 0,-16.7 5.5,3 z m 53,13.45 -3.9,0.8 -3.8,0.8 0,-0.95 15.35,-3.25 0,0.95 -3.85,0.8 -3.8,0.85 z"
             id="path4239"
             inkscape:connector-curvature="0"
             style="fill:#b9ced7;stroke-linecap:round;stroke-linejoin:round" />
          <path
             d="m 7.95,-3.95 0.1,1.4 -12.85,0 0.15,-1.4 12.6,0 z"
             id="path4241"
             inkscape:connector-curvature="0"
             style="fill:#c44d4d;stroke-linecap:round;stroke-linejoin:round" />
          <path
             d="m -4.8,-2.55 12.85,0 0.85,8 -14.55,0 0.85,-8 z"
             id="path4243"
             inkscape:connector-curvature="0"
             style="fill:#4a3c55;stroke-linecap:round;stroke-linejoin:round" />
          <path
             d="m -27.85,15.9 3.9,0.8 0,5.35 -3.9,-0.85 0,-5.3 z m 7.75,1.65 3.8,0.8 0,5.3 -3.8,-0.8 0,-5.3 z m 39.6,6.1 0,-5.3 3.9,-0.8 0,5.3 -3.9,0.8 z m 11.55,-7.75 0,5.3 -3.85,0.85 0,-5.35 3.85,-0.8 z"
             id="path4245"
             inkscape:connector-curvature="0"
             style="fill:#ecbd02;stroke-linecap:round;stroke-linejoin:round" />
          <path
             d="m -23.95,22.05 0,-5.35 3.85,0.85 0,5.3 -3.85,-0.8 z m 7.65,-3.7 3.9,0.8 0,5.35 -3.9,-0.85 0,-5.3 z m 35.8,0 0,5.3 -3.8,0.85 0,-5.35 3.8,-0.8 z m 3.9,4.5 0,-5.3 3.8,-0.85 0,5.35 -3.8,0.8 z"
             id="path4247"
             inkscape:connector-curvature="0"
             style="fill:#ffcc00;stroke-linecap:round;stroke-linejoin:round" />
        </g>
      </g>
      <g
         id="g4249">
        <path
           d="m 567.85,407.55 2.35,-4.85 0.65,-0.75 c 0.26664,-0.2 0.54996,-0.3 0.85,-0.3 l 2.05,0 c 0.3,0 0.6,0.1 0.9,0.3 l 0.65,0.85 0.2,1.1 -2.7,27.15 c -0.0333,0.43334 -0.18336,0.81667 -0.45,1.15 l -1,0.6 c -0.4,0.0667 -0.7666,2e-5 -1.1,-0.2 -0.36664,-0.23333 -0.61664,-0.55 -0.75,-0.95 l -1.25,-3.05 0.85,-2.75 1.95,4.95 2.7,-27.15 -2.05,0 -2.6,5.4 -1.25,-1.5 z m -31.85,37.9 -7.55,0 0,-2 7.55,0 0,2 z m -39.75,-16.85 -1.25,3.05 -0.75,0.95 -1.1,0.2 c -0.4,-0.10002 -0.73334,-0.3 -1,-0.6 -0.26667,-0.33333 -0.41666,-0.71666 -0.45,-1.15 l -2.65,-27.15 c -0.0667,-0.4 -0.0333,-0.76667 0.1,-1.1 0.16665,-0.36668 0.38333,-0.65 0.65,-0.85 0.3,-0.2 0.6167,-0.3 0.95,-0.3 l 1.95,0 0.9,0.3 0.65,0.7 2.4,4.9 -1.3,1.5 -2.65,-5.4 -1.95,0 2.65,27.15 1.95,-4.95 0.9,2.75 z"
           id="path4251"
           inkscape:connector-curvature="0"
           style="fill:#802b2b;stroke-linecap:round;stroke-linejoin:round" />
        <path
           d="m 568.25,428.6 -3.9,2.1 -0.4,0.2 -2.2,0.45 0,-2.05 1.85,-0.4 5.5,-3.05 -0.85,2.75 z m -21.9,6.1 -2.25,0.5 -1.1,-1.9 3.35,-0.7 0,2.1 z m -26,0.5 -2.2,-0.5 0,-2.1 3.25,0.7 -1.05,1.9 z m -17.7,-3.85 -2.1,-0.45 -0.4,-0.2 -3.9,-2.1 -0.9,-2.75 5.55,3.05 1.75,0.4 0,2.05 z m -6,-23.8 4.15,2.25 21.1,-13.7 1.55,1.3 -3.6,2.35 -18.95,12.35 -5.55,-3.05 1.3,-1.5 z m 45.95,-11.45 21.1,13.7 4.15,-2.25 1.25,1.5 -5.5,3.05 -18.95,-12.35 -3.65,-2.35 1.6,-1.3 z"
           id="path4253"
           inkscape:connector-curvature="0"
           style="fill:#9ebbc7;stroke-linecap:round;stroke-linejoin:round" />
        <path
           d="m 561.75,431.35 -15.4,3.35 0,-2.1 3.85,-0.85 3.85,-0.8 3.85,-0.8 3.85,-0.85 0,2.05 z m -43.6,3.35 -15.5,-3.35 0,-2.05 3.9,0.85 3.85,0.8 3.85,0.8 3.9,0.85 0,2.1 z"
           id="path4255"
           inkscape:connector-curvature="0"
           style="fill:#caa202;stroke-linecap:round;stroke-linejoin:round" />
        <path
           d="m 544.1,435.2 -5.05,9.3 -0.65,0.7 -0.85,0.25 -1.55,0 0,-2 1.55,0 5.45,-10.15 1.1,1.9 z m -15.65,10.25 -1.5,0 -0.85,-0.25 -0.65,-0.7 -5.1,-9.3 1.05,-1.9 5.55,10.15 1.5,0 0,2 z m -6.55,-49.35 2.95,-23.85 c 0.0667,-0.5 0.2667,-0.91666 0.6,-1.25 0.3,-0.33334 0.6833,-0.5 1.15,-0.5 l 11.3,0 c 0.4333,0 0.8166,0.16666 1.15,0.5 0.3,0.33334 0.5,0.75 0.6,1.25 l 2.95,23.85 -1.6,1.3 -3.1,-24.9 -11.3,0 -3.15,24.9 -1.55,-1.3 z"
           id="path4257"
           inkscape:connector-curvature="0"
           style="fill:#cccccc;stroke-linecap:round;stroke-linejoin:round" />
        <path
           d="m 569.1,409.05 2.6,-5.4 2.05,0 -2.7,27.15 -1.95,-4.95 0,-16.8 z m -40.65,34.4 -4.55,-8.5 0,-21.5 3.4,-37.4 9.8,0 3.4,37.4 0,21.5 -4.5,8.5 -7.55,0 z m -2.65,-38.05 -0.9,8.05 14.6,0 -0.8,-8.05 -0.15,-1.45 -12.65,0 -0.1,1.45 z m -33.1,-1.75 2.65,5.4 0,16.8 -1.95,4.95 -2.65,-27.15 1.95,0 z"
           id="path4259"
           inkscape:connector-curvature="0"
           style="fill:#ac3939;stroke-linecap:round;stroke-linejoin:round" />
        <path
           d="m 537.9,372.5 3.1,24.9 2,16.05 0,19.85 -5.45,10.15 -1.55,0 4.5,-8.5 0,-21.5 -3.4,-37.4 -9.8,0 -3.4,37.4 0,21.5 4.55,8.5 -1.5,0 -5.55,-10.15 0,-19.85 2.05,-16.05 3.15,-24.9 11.3,0 z"
           id="path4261"
           inkscape:connector-curvature="0"
           style="fill:#f2f2f2;stroke-linecap:round;stroke-linejoin:round" />
        <path
           d="m 523.45,397.4 -2.05,16.05 0,19.85 -3.25,-0.7 0,-5.35 0,-1 0,-12.8 1.7,-13.7 3.6,-2.35 z m 19.55,35.9 0,-19.85 -2,-16.05 3.65,2.35 1.7,13.7 0,12.8 0,1 0,5.35 -3.35,0.7 z"
           id="path4263"
           inkscape:connector-curvature="0"
           style="fill:#bdd6db;stroke-linecap:round;stroke-linejoin:round" />
        <path
           d="m 519.85,399.75 -1.7,13.7 0,12.8 -15.5,-3.25 0,0.95 0,5.35 -1.75,-0.4 0,-16.8 18.95,-12.35 z m 26.5,13.7 -1.7,-13.7 18.95,12.35 0,16.8 -1.85,0.4 0,-5.35 0,-0.95 -15.4,3.25 0,-12.8 z"
           id="path4265"
           inkscape:connector-curvature="0"
           style="fill:#d3e1e7;stroke-linecap:round;stroke-linejoin:round" />
        <path
           d="m 518.15,426.25 0,1 -3.9,-0.85 -3.85,-0.8 -3.85,-0.85 -3.9,-0.8 0,-0.95 15.5,3.25 z m -17.25,-14.15 0,16.8 -5.55,-3.05 0,-16.8 5.55,3.05 z m 45.45,14.15 15.4,-3.25 0,0.95 -3.85,0.8 -3.85,0.85 -3.85,0.8 -3.85,0.85 0,-1 z m 17.25,2.65 0,-16.8 5.5,-3.05 0,16.8 -5.5,3.05 z"
           id="path4267"
           inkscape:connector-curvature="0"
           style="fill:#b9ced7;stroke-linecap:round;stroke-linejoin:round" />
        <path
           d="m 518.15,427.25 0,5.35 -3.9,-0.85 0,-5.35 3.9,0.85 z m 39.75,-2.5 0,5.4 -3.85,0.8 0,-5.35 3.85,-0.85 z m -7.7,1.65 0,5.35 -3.85,0.85 0,-5.35 3.85,-0.85 z m -39.8,-0.8 0,5.35 -3.85,-0.8 0,-5.4 3.85,0.85 z"
           id="path4269"
           inkscape:connector-curvature="0"
           style="fill:#ffcc00;stroke-linecap:round;stroke-linejoin:round" />
        <path
           d="m 524.9,413.45 0.9,-8.05 12.9,0 0.8,8.05 -14.6,0 z"
           id="path4271"
           inkscape:connector-curvature="0"
           style="fill:#4a3c55;stroke-linecap:round;stroke-linejoin:round" />
        <path
           d="m 538.7,405.4 -12.9,0 0.1,-1.45 12.65,0 0.15,1.45 z"
           id="path4273"
           inkscape:connector-curvature="0"
           style="fill:#c44d4d;stroke-linecap:round;stroke-linejoin:round" />
        <path
           d="m 502.65,429.3 0,-5.35 3.9,0.8 0,5.4 -3.9,-0.85 z m 59.1,-5.35 0,5.35 -3.85,0.85 0,-5.4 3.85,-0.8 z m -11.55,7.8 0,-5.35 3.85,-0.8 0,5.35 -3.85,0.8 z m -35.95,-5.35 0,5.35 -3.85,-0.8 0,-5.35 3.85,0.8 z"
           id="path4275"
           inkscape:connector-curvature="0"
           style="fill:#ecbd02;stroke-linecap:round;stroke-linejoin:round" />
        <path
           d="m 215.45,247.3 c -3.7,-34.3 -3.7,-68.2 0,-101.7 0,-0.33332 0.13333,-0.61666 0.4,-0.85 l 0,-0.2 0.1,0.05 0.15,-0.05 0,0.2 c 0.26667,0.23334 0.4,0.51668 0.4,0.85 3.7,33.5 3.7,67.4 0,101.7 0,0.33333 -0.13333,0.63333 -0.4,0.9 l 0,0.2 -0.15,-0.1 -0.1,0.1 0,-0.2 c -0.26667,-0.26667 -0.4,-0.56667 -0.4,-0.9 z"
           id="path4277"
           style="fill:url(#linearGradient4291);stroke-linecap:round;stroke-linejoin:round"
           inkscape:connector-curvature="0" />
        <path
           d="m 175,229 0.35,1.65 0.2,3.35 3.3,0.15 1.65,0.35 -1.65,0.45 -3.3,0.15 -0.2,3.35 L 175,240 c -0.13333,0 -0.26666,-0.51666 -0.4,-1.55 -0.1,-0.93334 -0.15,-2.05 -0.15,-3.35 l -3.35,-0.15 c -1.06666,-0.1 -1.6,-0.24999 -1.6,-0.45 0,-0.13333 0.53334,-0.25 1.6,-0.35 l 3.35,-0.15 c 0,-1.3 0.05,-2.41667 0.15,-3.35 0.13334,-1.1 0.26667,-1.65 0.4,-1.65 z"
           id="path4279"
           inkscape:connector-curvature="0"
           style="fill:#ffffff;stroke-linecap:round;stroke-linejoin:round" />
        <path
           d="m 174,262 c 0.26666,0 0.5,1.03333 0.7,3.1 l 0.35,6.35 6.35,0.3 c 2.06666,0.19998 3.1,0.44998 3.1,0.75 0,0.30002 -1.03334,0.55002 -3.1,0.75 l -6.35,0.3 -0.35,6.4 c -0.2,2.03334 -0.43334,3.05 -0.7,3.05 -0.3,0 -0.55,-1.01666 -0.75,-3.05 -0.2,-1.8 -0.3,-3.93334 -0.3,-6.4 l -6.4,-0.3 c -2.03334,-0.19998 -3.05,-0.44998 -3.05,-0.75 0,-0.30002 1.01666,-0.55002 3.05,-0.75 l 6.4,-0.3 c 0,-2.43334 0.1,-4.55 0.3,-6.35 0.2,-2.06667 0.45,-3.1 0.75,-3.1 z"
           id="path4281"
           inkscape:connector-curvature="0"
           style="fill:#ffffff;stroke-linecap:round;stroke-linejoin:round" />
        <path
           d="m 453.7,37.25 c 0.9,-1.133335 1.88334,-2.233334 2.95,-3.3 7.73333,-7.733333 17.06667,-11.6 28,-11.6 10.9333,0 20.26666,3.866667 28,11.6 7.73336,7.733334 11.6,17.06667 11.6,28 0,2.233334 -0.15,4.4 -0.45,6.5 4.2,-1.6 8.75,-2.4 13.65,-2.4 10.5,0 19.4667,3.71667 26.9,11.15 7.4333,7.43333 11.15,16.41667 11.15,26.95 0,10.5 -3.7167,19.46667 -11.15,26.9 -7.4333,7.43334 -16.4,11.15 -26.9,11.15 l -6.1,-0.4 c -1.9,2.9 -4.15,5.65 -6.75,8.25 -5.03335,5 -10.6,8.7 -16.7,11.1 -2.53333,4.73333 -5.86667,9.15 -10,13.25 -10.76667,10.8 -23.78333,16.2 -39.05,16.2 -15.26666,0 -28.29998,-5.4 -39.1,-16.2 l -4.35,-4.85 -6.3,0.4 c -13.4333,0 -24.9,-4.75 -34.4,-14.25 -6.46666,-6.46666 -10.73333,-13.85 -12.8,-22.15 -6.6,-1.23333 -12.41666,-4.38334 -17.45,-9.45 -6.73333,-6.7 -10.1,-14.81667 -10.1,-24.35 0,-9.5 3.36667,-17.61667 10.1,-24.35 5.06666,-5.066664 10.95,-8.216666 17.65,-9.45 l 0,-0.55 c 0,-6.433333 2.26667,-11.933333 6.8,-16.5 4.56667,-4.533335 10.06667,-6.8 16.5,-6.8 5.36666,0 10.06667,1.566664 14.1,4.7 3.36667,-2.6 7.25,-3.9 11.65,-3.9 l 0.5,0 c 1.03335,-1.5 2.23336,-2.933333 3.6,-4.3 5.5,-5.5 12.15,-8.250002 19.95,-8.25 7.10002,0 13.26667,2.3 18.5,6.9 z"
           id="path4283"
           style="fill:url(#linearGradient4293);stroke-linecap:round;stroke-linejoin:round"
           inkscape:connector-curvature="0" />
        <path
           d="m 391.05,295 c 7.73333,-10.63333 11.6,-22.9 11.6,-36.8 0,-17.53333 -6.21668,-32.51667 -18.65,-44.95 -12.43332,-12.46666 -27.43332,-18.7 -45,-18.7 -17.6,0 -32.61667,6.21666 -45.05,18.65 -12.39998,12.46666 -18.6,27.46666 -18.6,45 0,13.83336 3.81666,26.05003 11.45,36.65 -9.53334,-11.76666 -14.3,-25.53332 -14.3,-41.3 0,-18.4 6.48334,-34.08334 19.45,-47.05 13,-12.96666 28.68333,-19.45 47.05,-19.45 18.36667,0 34.03333,6.48334 47,19.45 13,13 19.5,28.68333 19.5,47.05 0,15.83333 -4.81668,29.65 -14.45,41.45 z m -97.1,-81.8 0,0.05 z m 90.05,0.05 -0.05,-0.05 z"
           id="path4285"
           inkscape:connector-curvature="0"
           style="opacity:0.30196078;fill:#ffffff;stroke-linecap:round;stroke-linejoin:round" />
      </g>
    </g>
  </g>
</svg>
